<?xml version="1.0" standalone="no"?>
<!DOCTYPE svg PUBLIC "-//W3C//DTD SVG 20010904//EN"
 "http://www.w3.org/TR/2001/REC-SVG-20010904/DTD/svg10.dtd">
<svg version="1.0" xmlns="http://www.w3.org/2000/svg"
 width="960.000000pt" height="1200.000000pt" viewBox="0 0 960.000000 1200.000000"
 preserveAspectRatio="xMidYMid meet">

<g transform="translate(0.000000,1200.000000) scale(0.100000,-0.100000)"
fill="#000000" stroke="none">
<path d="M2706 11991 c-3 -5 -17 -12 -32 -15 -29 -8 -144 -84 -144 -96 0 -4
-9 -6 -20 -3 -16 4 -20 0 -20 -22 0 -20 -4 -26 -15 -21 -18 7 -110 -60 -110
-81 0 -8 -5 -17 -11 -21 -6 -4 -14 -16 -18 -28 -5 -17 -141 -109 -181 -123
-16 -5 -85 -85 -85 -97 0 -7 -7 -15 -16 -18 -9 -4 -14 -13 -10 -21 3 -10 -1
-15 -13 -15 -22 0 -45 -25 -37 -38 3 -6 -15 -26 -40 -47 -42 -34 -44 -38 -27
-51 17 -12 17 -13 1 -14 -10 0 -33 -13 -51 -30 -19 -16 -38 -30 -41 -30 -4 0
-21 -16 -39 -35 -17 -19 -37 -35 -44 -35 -18 0 -45 -31 -39 -46 3 -8 2 -14 -2
-14 -4 0 -13 -13 -19 -30 -6 -16 -18 -30 -26 -30 -14 0 -47 -84 -47 -121 0
-10 -5 -21 -10 -24 -6 -4 -8 -10 -5 -15 3 -5 -3 -13 -12 -19 -16 -9 -16 -12
-3 -21 13 -9 10 -15 -18 -38 -34 -29 -42 -45 -17 -36 24 10 17 -12 -10 -30
-14 -9 -25 -24 -25 -34 0 -10 -6 -26 -13 -37 -28 -42 -47 -280 -32 -397 8 -64
3 -77 -62 -149 -31 -34 -35 -45 -36 -96 -3 -120 18 -285 43 -333 4 -9 11 -36
15 -60 6 -41 59 -168 75 -180 3 -3 14 -22 23 -42 10 -21 22 -38 28 -38 5 0 7
-11 3 -26 -5 -19 -1 -29 15 -40 12 -9 21 -26 21 -40 0 -17 6 -24 18 -24 22 0
57 -38 66 -71 6 -20 0 -17 -29 16 -28 30 -38 36 -44 26 -5 -8 -30 -17 -56 -21
-48 -7 -62 -1 -84 38 -9 16 -11 16 -39 0 -17 -10 -40 -18 -51 -18 -14 0 -21
-6 -21 -19 0 -21 -44 -41 -91 -41 -15 0 -30 -4 -34 -10 -3 -5 -18 -9 -33 -9
-15 0 -43 0 -62 -1 -53 -3 -113 17 -139 44 -22 23 -22 26 -7 41 9 9 16 28 16
43 0 47 12 102 21 96 5 -3 9 -1 9 5 0 5 -5 11 -11 13 -5 2 -11 10 -12 18 -2 8
-6 21 -10 28 -5 6 -6 16 -2 21 3 5 -12 22 -32 37 -21 15 -42 33 -48 39 -23 25
-85 45 -142 44 -48 0 -72 -8 -143 -44 -47 -24 -102 -52 -122 -61 -21 -9 -38
-23 -38 -31 0 -13 -48 -62 -61 -63 -4 0 -23 -7 -44 -16 -28 -11 -35 -18 -26
-27 17 -17 13 -27 -9 -27 -11 0 -20 -7 -20 -15 0 -16 -30 -10 -42 9 -4 6 -46
9 -102 7 -63 -1 -96 1 -96 8 0 6 -8 11 -19 11 -10 0 -24 7 -31 15 -7 8 -16 15
-21 15 -5 0 -9 -192 -9 -435 0 -369 2 -435 14 -435 8 0 16 4 18 8 6 15 137 62
173 62 34 0 95 -30 127 -62 10 -10 30 -20 45 -23 48 -10 98 -27 104 -37 3 -5
32 -9 65 -9 35 -1 65 -6 75 -15 13 -12 17 -7 33 39 13 39 29 60 60 85 24 17
50 32 59 32 10 0 17 5 17 10 0 6 28 10 64 10 53 0 67 -4 89 -24 15 -14 36 -27
47 -31 11 -3 20 -11 20 -16 0 -6 11 -21 25 -34 17 -18 35 -25 64 -25 42 0 86
-15 111 -39 8 -7 30 -20 50 -28 62 -25 79 -36 73 -47 -4 -7 -1 -6 7 1 8 7 17
8 24 2 6 -5 22 -18 35 -29 13 -11 39 -20 58 -20 39 0 31 1 91 -14 31 -9 56
-10 72 -4 31 12 224 7 268 -6 24 -7 39 -6 53 2 22 14 155 16 163 3 3 -5 17
-11 32 -14 27 -5 64 24 64 51 0 9 6 12 16 8 9 -3 18 -6 20 -6 2 0 4 -8 5 -17
0 -14 2 -15 6 -3 12 32 37 49 79 56 24 3 47 10 50 15 7 12 24 12 24 0 0 -5 -9
-12 -19 -16 -28 -9 -33 -72 -8 -95 18 -17 18 -19 2 -44 -21 -31 -15 -42 13
-27 17 9 19 8 15 -9 -9 -35 40 -22 95 24 12 11 22 14 22 8 0 -6 -4 -14 -10
-17 -15 -10 -12 -35 5 -35 8 0 15 -6 15 -13 0 -6 13 -25 30 -40 22 -21 35 -27
51 -22 12 4 24 2 28 -4 12 -19 71 16 71 42 1 19 3 17 14 -8 11 -25 11 -31 -1
-38 -7 -4 -13 -13 -13 -20 0 -8 2 -9 8 -1 9 15 52 37 59 31 2 -3 -3 -17 -12
-31 -21 -32 -13 -32 59 -5 32 12 56 28 56 36 0 8 5 11 10 8 6 -3 10 -1 10 4 0
6 6 11 13 11 16 0 57 53 57 74 0 8 5 18 10 21 6 3 10 22 10 41 0 25 4 34 16
34 14 0 16 8 11 48 -4 40 -12 53 -51 89 -36 32 -58 44 -99 51 -49 8 -50 10
-27 20 14 6 19 11 13 11 -21 1 -15 31 10 52 l22 19 -37 -2 c-21 -1 -40 1 -44
5 -4 4 0 7 10 7 14 0 15 4 6 20 -6 11 -14 19 -18 18 -13 -4 -52 13 -52 23 0 5
-5 9 -11 9 -5 0 -7 -5 -3 -11 7 -12 -13 -29 -35 -29 -7 0 -11 6 -8 14 4 10 -6
16 -36 20 -75 11 -171 16 -177 8 -9 -13 -70 -31 -75 -22 -3 5 1 11 7 13 10 4
10 6 1 6 -7 1 -20 -8 -30 -18 -10 -11 -31 -24 -46 -30 -26 -10 -27 -9 -17 9 6
11 15 20 20 20 6 0 10 4 10 9 0 14 -41 0 -47 -15 -3 -8 -10 -14 -16 -14 -6 0
-19 -8 -30 -17 -19 -17 -19 -17 -13 5 7 21 5 22 -21 16 -15 -4 -35 -13 -44
-20 -24 -21 -29 -8 -30 75 0 42 -3 83 -7 92 -6 15 -36 50 -139 167 -36 40 -40
52 -20 52 8 0 20 -11 27 -25 16 -30 26 -32 33 -5 4 16 9 18 37 10 28 -8 31 -7
28 12 -2 12 -9 23 -17 26 -8 3 -11 0 -7 -6 4 -6 -2 -8 -14 -5 -11 3 -20 0 -20
-6 0 -20 -25 -12 -35 12 -6 14 -21 23 -39 25 -25 3 -28 1 -18 -11 10 -12 9
-16 -4 -21 -19 -7 -50 17 -59 45 -4 11 -12 19 -19 19 -16 0 -56 46 -56 64 0 8
-6 16 -12 19 -7 2 -10 8 -6 12 11 12 38 -14 38 -36 0 -11 5 -19 10 -19 6 0 20
-9 32 -20 23 -21 48 -27 48 -11 0 5 -7 12 -16 15 -9 4 -14 9 -11 12 3 3 16 0
29 -7 12 -7 28 -12 34 -11 6 1 17 -5 24 -13 7 -8 25 -15 40 -15 23 0 27 4 28
31 0 17 -2 29 -4 26 -3 -3 -14 3 -25 14 -10 10 -25 19 -33 19 -22 0 -30 -19
-12 -26 9 -3 16 -12 16 -20 0 -12 -4 -12 -22 -2 -13 7 -26 17 -29 22 -4 4 -21
9 -40 10 -35 2 -54 26 -20 26 28 0 37 21 16 37 -27 19 -53 16 -60 -8 -5 -14
-10 -18 -17 -11 -6 6 -5 18 4 33 7 13 14 25 14 27 1 1 36 -7 78 -18 87 -24
111 -21 100 12 -7 22 -28 48 -39 48 -3 0 -1 -9 5 -19 14 -27 13 -29 -15 -23
-14 2 -22 8 -20 13 8 12 -17 49 -33 49 -8 0 -12 6 -9 14 4 10 -3 16 -21 19
-22 3 -20 4 9 6 29 1 38 -4 47 -24 6 -14 16 -25 22 -25 15 0 12 17 -7 35 -16
16 -14 17 24 10 40 -6 42 -5 45 22 2 17 9 28 18 28 10 0 14 -8 12 -27 -1 -16
2 -28 8 -28 8 0 16 52 11 82 0 3 11 17 24 30 14 13 25 29 25 36 0 6 4 12 8 12
5 0 17 18 28 40 12 25 24 38 33 35 7 -3 20 0 27 6 11 9 15 7 20 -5 3 -9 11
-16 16 -16 6 0 7 7 4 16 -5 13 -1 15 24 12 17 -3 33 -1 36 4 3 5 10 6 15 3 5
-4 9 -2 9 3 0 18 116 52 179 52 37 0 60 4 56 10 -3 5 8 16 25 25 16 8 30 20
30 25 0 6 18 10 40 10 39 0 39 0 34 33 -4 22 -3 28 4 19 13 -19 48 -11 44 10
-1 10 7 19 19 23 16 5 18 9 9 15 -7 4 -10 15 -7 25 4 9 11 14 16 11 4 -3 17 4
27 16 13 14 15 22 7 25 -17 6 23 71 69 112 21 18 38 42 38 52 0 21 16 26 23 7
3 -8 6 -6 6 4 1 10 12 25 26 34 14 9 24 24 23 32 -2 10 13 25 40 40 31 18 42
30 42 48 0 17 6 24 20 25 11 1 25 2 31 3 5 0 19 12 29 26 11 14 20 19 20 13 0
-18 29 -16 37 3 3 8 11 13 18 10 7 -2 31 0 54 6 30 8 41 15 37 25 -3 8 2 22
11 31 15 16 16 15 9 -11 -10 -40 21 -36 39 6 12 29 20 34 70 44 30 7 62 10 70
6 9 -3 26 2 40 11 13 9 35 16 48 16 13 0 32 7 43 15 29 22 38 18 20 -10 -19
-29 -20 -45 -3 -45 15 1 62 41 70 61 3 8 6 1 6 -15 1 -23 4 -26 15 -17 20 17
30 -4 11 -22 -8 -9 -13 -22 -10 -30 3 -7 -10 -42 -30 -76 -19 -35 -35 -66 -35
-70 0 -3 -9 -12 -20 -19 -11 -7 -20 -17 -20 -23 0 -18 57 34 79 72 11 20 28
42 36 49 8 7 15 21 15 31 0 11 3 19 8 19 11 -1 44 -50 33 -50 -5 0 -12 -13
-16 -30 -4 -16 -11 -32 -16 -35 -12 -8 -12 -25 1 -25 6 0 10 6 10 14 0 7 6 19
14 26 8 6 12 18 9 26 -3 8 1 14 10 14 9 0 18 9 22 19 8 26 55 58 55 37 0 -7
-6 -18 -13 -25 -8 -6 -14 -32 -14 -63 0 -29 2 -39 4 -22 3 21 11 34 24 37 13
4 17 10 13 24 -6 15 -3 14 17 -5 22 -22 23 -24 7 -36 -22 -16 -23 -26 -2 -26
9 0 25 -12 36 -26 15 -19 27 -24 44 -20 16 4 29 0 44 -16 11 -12 20 -25 20
-30 0 -19 26 -1 31 22 5 20 7 16 8 -16 1 -27 8 -47 20 -58 11 -10 19 -25 19
-34 -1 -10 1 -24 3 -32 3 -9 -4 -16 -18 -18 -19 -3 -23 1 -23 21 0 14 6 28 13
31 6 3 1 3 -13 0 -34 -9 -33 -5 -22 -65 12 -66 4 -80 -44 -72 -27 4 -34 2 -34
-11 0 -9 -7 -16 -15 -16 -9 0 -12 -6 -9 -15 4 -8 15 -15 25 -15 10 0 19 -5 19
-11 0 -21 45 -4 48 19 2 12 7 22 12 22 5 0 17 3 27 6 15 5 16 4 3 -6 -12 -9
-9 -11 17 -6 26 4 31 2 26 -9 -3 -9 -15 -18 -28 -21 -25 -6 -50 -50 -35 -59 6
-4 10 4 10 16 0 18 3 20 12 11 7 -7 25 -12 40 -12 43 0 33 -17 -14 -25 -63
-11 -82 -23 -67 -42 10 -12 10 -19 0 -34 -17 -29 -5 -59 25 -59 15 0 24 -6 24
-16 0 -10 -6 -13 -19 -9 -20 6 -51 -3 -51 -15 0 -5 9 -12 20 -15 12 -4 23 -18
27 -36 3 -16 12 -34 19 -40 20 -16 17 -29 -5 -29 -22 0 -35 28 -25 54 4 11 1
16 -11 16 -10 0 -15 -7 -14 -17 4 -37 -32 -74 -43 -44 -1 5 -25 12 -52 16 -35
6 -47 5 -42 -4 4 -6 15 -11 24 -11 9 0 24 -5 32 -10 10 -6 -1 -7 -33 -4 -36 4
-47 2 -45 -8 2 -7 -7 -14 -19 -16 -13 -2 -23 -8 -23 -13 0 -5 -16 -9 -36 -9
-31 0 -36 -3 -31 -20 3 -11 1 -18 -3 -15 -5 3 -20 -6 -34 -20 -14 -14 -30 -25
-36 -25 -5 0 -10 -7 -10 -15 0 -17 -38 -35 -74 -35 -15 0 -26 -7 -29 -20 -3
-11 -9 -20 -14 -19 -4 1 -18 -2 -30 -6 -23 -7 -32 -25 -12 -25 16 0 -12 -25
-51 -46 -35 -18 -38 -19 -62 -24 -7 -1 -2 -5 12 -10 24 -7 24 -8 5 -16 -11 -4
-25 -15 -31 -23 -10 -13 -14 -13 -28 -2 -14 12 -16 11 -16 -8 0 -14 -6 -21
-19 -21 -25 0 -35 -26 -13 -35 14 -5 14 -7 2 -15 -8 -5 -23 -7 -33 -4 -11 3
-20 -1 -24 -13 -4 -10 -9 -20 -12 -23 -4 -3 -11 -18 -17 -35 -7 -21 -16 -29
-28 -27 -10 2 -15 -1 -12 -7 4 -5 -3 -15 -14 -21 -11 -6 -18 -15 -15 -21 4 -5
-3 -9 -14 -9 -16 0 -21 -6 -21 -25 0 -28 -16 -34 -23 -7 -2 9 -4 0 -4 -20 -1
-21 2 -38 6 -38 13 0 32 -52 26 -71 -8 -23 -32 -24 -56 -3 -9 8 -28 14 -40 12
-20 -3 -21 -5 -8 -18 8 -8 18 -22 21 -31 4 -9 18 -19 33 -21 22 -5 26 -2 22
13 -7 26 6 24 18 -3 8 -17 17 -22 38 -20 21 3 27 -1 27 -16 0 -13 12 -23 40
-32 22 -7 40 -19 40 -27 0 -7 -4 -13 -9 -13 -13 0 -22 -44 -15 -79 4 -17 13
-31 20 -31 8 0 14 -8 14 -17 0 -14 -2 -15 -9 -4 -6 10 -10 10 -16 2 -4 -7 4
-22 17 -34 31 -29 52 -72 45 -91 -4 -9 -3 -16 2 -16 13 0 21 -39 9 -46 -6 -4
-14 -1 -18 6 -16 27 -27 0 -17 -40 13 -47 34 -52 50 -10 7 18 19 30 29 30 24
0 23 -17 -2 -25 -29 -9 -25 -35 5 -35 15 0 25 -6 25 -14 0 -21 -19 -30 -34
-17 -10 9 -15 8 -20 -5 -4 -11 -14 -14 -33 -10 -16 3 -35 0 -45 -7 -21 -16
-20 -70 2 -62 8 4 11 3 7 -1 -4 -4 -2 -13 4 -20 7 -8 7 -14 -1 -19 -5 -3 -10
1 -10 11 0 14 -3 15 -21 3 -16 -11 -21 -27 -23 -67 -2 -36 0 -52 9 -52 7 0 15
-7 19 -15 4 -11 -1 -15 -19 -15 -14 0 -25 -4 -25 -8 0 -15 66 -72 82 -72 12 0
16 -7 14 -25 -1 -14 -6 -28 -9 -32 -4 -3 3 -11 16 -18 22 -11 24 -21 11 -62
-5 -17 -2 -23 10 -23 9 0 16 -7 16 -15 0 -8 9 -19 20 -25 17 -9 20 -8 20 11 0
17 4 19 18 13 9 -5 36 -8 60 -7 29 0 42 -4 42 -13 0 -8 -7 -14 -15 -14 -11 0
-13 -8 -9 -32 5 -33 5 -33 -13 -13 -29 33 -50 37 -73 13 -11 -12 -20 -32 -20
-45 0 -13 -4 -23 -9 -23 -5 0 -11 -6 -14 -12 -2 -7 -3 -4 -1 8 2 12 1 24 -3
27 -10 11 -32 -13 -26 -29 4 -10 -3 -14 -26 -14 -35 0 -42 -15 -10 -23 23 -6
17 -27 -7 -27 -8 0 -14 -5 -14 -11 0 -6 7 -9 15 -6 11 5 12 1 5 -19 -14 -37
25 -50 106 -35 74 13 124 14 124 2 0 -8 -74 -26 -97 -22 -6 1 -14 -16 -18 -38
-3 -21 -13 -47 -20 -58 -8 -10 -15 -27 -15 -38 0 -12 -5 -26 -11 -32 -9 -9
-18 -35 -36 -112 -4 -15 -2 -22 5 -17 5 3 13 29 17 56 4 28 11 50 16 50 5 0 9
5 9 11 0 6 7 17 15 26 14 14 15 13 9 -13 -3 -16 -15 -41 -25 -56 -10 -15 -19
-36 -19 -46 0 -10 -9 -28 -20 -40 -11 -12 -20 -25 -20 -31 0 -5 -6 -12 -12
-14 -10 -4 -10 -8 -2 -14 6 -4 14 -19 18 -33 6 -19 5 -21 -3 -10 -19 28 -39
-9 -46 -87 -5 -61 -4 -72 8 -67 10 4 16 -6 21 -33 8 -44 59 -156 68 -148 6 7
127 -71 140 -90 13 -17 9 -27 -12 -32 -11 -3 -20 -10 -20 -15 0 -22 -123 -128
-230 -200 -114 -76 -170 -126 -205 -183 -10 -16 -39 -55 -65 -85 -26 -30 -62
-80 -81 -110 -18 -30 -37 -56 -41 -58 -4 -2 -8 -9 -8 -15 0 -6 -6 -18 -14 -26
-36 -43 -135 -343 -135 -411 0 -19 1 -120 3 -225 2 -104 -1 -218 -6 -252 -13
-94 -12 -844 1 -1114 10 -202 10 -257 -4 -385 -8 -82 -22 -214 -30 -294 -8
-80 -19 -179 -25 -220 -10 -72 -18 -176 -40 -490 -6 -80 -15 -176 -21 -215 -6
-38 -13 -104 -15 -145 -3 -41 -9 -108 -15 -148 -5 -40 -9 -91 -9 -113 0 -65
44 -140 136 -231 65 -63 92 -99 120 -157 25 -53 52 -91 87 -123 29 -26 46 -47
38 -48 -11 0 -11 -3 -1 -15 10 -12 9 -15 -8 -15 -13 0 -25 -11 -34 -30 -7 -17
-21 -30 -31 -30 -10 0 -20 -7 -22 -15 -3 -8 -7 -22 -10 -31 -9 -27 -142 118
-200 216 -47 81 -115 169 -184 237 -28 28 -31 30 -25 10 4 -12 12 -25 18 -29
8 -6 7 -8 -1 -8 -7 0 -13 -7 -13 -17 0 -9 -3 -13 -7 -10 -8 8 -33 -11 -33 -25
0 -6 8 -8 18 -6 15 4 17 0 14 -23 -3 -23 -1 -29 15 -29 11 0 30 -11 43 -25 16
-17 26 -21 31 -14 4 6 12 8 19 4 9 -5 9 -9 1 -14 -12 -8 34 -78 48 -74 4 1 5
-11 3 -27 -6 -40 64 -112 81 -82 2 4 2 1 1 -5 -2 -7 3 -13 11 -13 8 0 15 5 15
11 0 5 5 7 10 4 6 -4 8 -15 5 -26 -5 -15 -1 -19 14 -19 12 0 21 -4 21 -10 0
-10 20 -37 52 -71 10 -10 20 -30 24 -44 3 -14 13 -25 21 -25 10 0 12 -6 8 -20
-5 -15 -2 -20 13 -20 14 0 27 -16 46 -55 18 -39 30 -53 41 -49 10 4 15 0 15
-13 0 -11 12 -33 26 -48 15 -16 33 -43 40 -61 8 -18 18 -36 24 -39 8 -5 7 -12
-2 -23 -11 -13 -10 -15 5 -9 13 5 17 1 17 -18 0 -13 15 -40 35 -62 19 -21 35
-43 35 -49 0 -7 7 -15 16 -18 8 -3 13 -10 10 -14 -3 -5 11 -16 30 -25 29 -14
33 -21 28 -42 -5 -20 -2 -25 20 -31 25 -6 37 -24 16 -24 -24 0 -7 -19 23 -26
17 -4 27 -9 21 -11 -15 -5 11 -62 31 -70 8 -2 11 -11 9 -18 -3 -7 5 -22 17
-33 13 -13 19 -27 15 -37 -3 -9 -2 -13 4 -10 6 3 10 2 10 -3 0 -6 12 -24 27
-41 l27 -31 347 0 347 0 12 33 c57 158 121 424 135 562 9 85 18 105 49 105 28
0 33 -6 76 -87 39 -72 75 -121 85 -111 15 14 -35 186 -90 313 -7 17 -23 62
-34 100 -12 39 -40 109 -62 157 -58 127 -89 250 -89 358 0 122 8 136 89 160
36 10 97 24 134 31 59 11 73 11 95 -2 40 -22 48 -57 34 -152 -16 -109 -15
-237 2 -368 14 -100 47 -223 67 -243 5 -6 27 -1 55 14 55 27 167 41 245 29
142 -20 307 -108 539 -288 170 -131 215 -185 307 -366 44 -87 83 -193 83 -225
0 -19 7 -20 90 -20 l90 0 -55 83 c-55 85 -100 186 -130 294 -22 80 -18 241 9
291 23 45 81 107 121 132 41 26 160 41 234 30 31 -4 97 -13 146 -20 117 -16
213 -44 259 -75 20 -14 56 -35 79 -47 64 -35 80 -49 114 -98 70 -103 107 -205
117 -319 5 -64 12 -85 20 -60 2 8 21 70 41 139 48 165 108 288 179 372 67 79
85 87 125 59 34 -25 209 -219 246 -275 79 -116 159 -323 171 -438 l7 -68 903
0 904 0 0 3470 c0 3078 -2 3470 -15 3470 -8 0 -15 -7 -15 -15 0 -8 -11 -17
-25 -21 -31 -8 -115 16 -115 32 0 7 -7 14 -15 18 -22 8 -18 44 5 51 11 3 24 4
29 0 5 -3 25 2 43 11 29 14 34 20 30 45 -3 17 0 29 7 29 6 0 11 -7 11 -15 0
-8 7 -15 15 -15 8 0 15 -4 15 -10 0 -5 7 -10 15 -10 13 0 15 22 15 134 l0 133
-52 5 c-37 4 -57 12 -69 27 -22 27 -39 27 -39 0 l0 -21 -37 22 c-20 11 -39 17
-42 12 -9 -13 -81 -23 -81 -11 0 6 -7 6 -20 -1 -11 -6 -32 -10 -47 -9 -15 1
-47 -3 -71 -10 -45 -13 -72 -4 -72 24 0 7 -7 18 -15 25 -8 7 -15 21 -15 31 0
23 -10 24 -36 4 -17 -14 -17 -16 -3 -27 14 -12 14 -15 -2 -32 -10 -11 -25 -16
-34 -12 -21 7 -85 -56 -85 -84 0 -11 -6 -20 -14 -20 -24 0 -27 -29 -3 -42 21
-12 21 -12 -13 -20 -19 -4 -64 -14 -100 -22 -65 -15 -131 -9 -145 14 -3 5 -38
25 -77 45 -59 28 -83 35 -133 35 -76 0 -136 20 -245 81 -83 47 -242 99 -399
131 -50 10 -76 23 -120 58 -52 42 -64 46 -143 58 -107 15 -143 30 -205 83 -26
23 -75 55 -108 70 -68 32 -219 64 -345 74 -103 8 -131 17 -159 56 -18 25 -25
28 -42 19 -11 -6 -17 -15 -14 -20 3 -4 -1 -11 -7 -13 -10 -4 -10 -6 0 -6 6 -1
12 -13 12 -27 0 -14 4 -23 10 -19 6 3 10 -5 10 -19 0 -14 5 -28 11 -32 6 -3 8
-15 6 -26 -7 -24 9 -71 21 -64 5 3 9 -9 10 -27 1 -18 4 -59 8 -92 5 -49 3 -58
-7 -47 -11 10 -16 8 -26 -10 -10 -19 -12 -20 -13 -5 0 9 -5 17 -11 17 -5 0 -7
-4 -4 -10 12 -19 -12 -10 -33 13 -28 30 -28 37 3 37 23 0 24 2 15 21 -9 16
-14 18 -26 9 -18 -16 -29 9 -20 44 3 14 2 28 -4 31 -5 3 -10 19 -10 34 0 20
-7 31 -25 39 -29 13 -32 34 -9 56 8 9 12 20 9 26 -10 15 -23 12 -28 -7 -5 -18
-8 26 -11 135 -1 39 -6 56 -19 63 -12 7 -15 18 -10 39 6 33 -16 150 -29 150
-4 0 -8 11 -8 25 0 13 -7 28 -17 33 -12 7 -14 17 -10 41 4 20 3 30 -3 26 -6
-3 -11 1 -11 9 -2 24 -4 30 -12 42 -4 7 0 17 8 24 16 13 20 31 8 29 -22 -4
-32 3 -27 16 3 8 2 20 -3 27 -4 7 -8 47 -9 88 0 41 -6 130 -13 197 -12 120
-12 124 9 154 25 34 38 33 20 -2 -14 -25 -9 -110 11 -196 13 -54 31 -67 57
-41 13 13 126 12 151 -2 20 -12 96 -43 136 -57 17 -6 46 -11 65 -11 34 0 54
18 103 91 8 11 37 23 77 31 60 13 69 12 118 -7 30 -11 56 -26 59 -34 3 -7 11
-13 17 -13 7 0 38 -16 70 -35 32 -19 65 -35 72 -35 8 0 14 -7 14 -15 0 -8 3
-15 8 -16 4 -1 23 -3 42 -5 19 -1 42 -4 50 -6 19 -3 129 20 152 33 24 12 28
11 28 -6 0 -11 11 -15 38 -15 30 0 39 5 49 25 6 14 7 23 2 19 -5 -3 -9 0 -9 5
0 6 4 11 9 11 5 0 13 10 17 23 11 35 48 64 93 71 32 5 41 11 41 26 0 17 7 20
43 19 28 0 36 -3 24 -8 -26 -10 -7 -23 66 -45 31 -10 57 -23 57 -28 0 -12 39
-48 52 -48 14 0 39 -28 36 -40 -2 -7 6 -17 16 -23 35 -21 56 -41 56 -53 0 -11
22 -24 41 -24 5 0 9 14 9 30 0 17 3 30 8 30 4 0 23 15 42 33 74 67 115 87 179
87 63 0 91 -6 91 -21 0 -5 14 -22 30 -37 16 -16 30 -35 30 -41 0 -7 17 -19 38
-28 20 -8 40 -20 44 -27 4 -6 8 -8 8 -3 0 4 15 0 32 -9 37 -19 138 -31 138
-16 0 17 89 21 122 5 48 -24 184 -10 218 22 14 14 27 37 28 52 1 14 9 34 17
43 8 9 15 21 15 26 0 5 14 15 31 23 27 12 36 11 72 -4 23 -9 52 -21 63 -25 18
-7 23 -20 29 -78 5 -49 13 -77 26 -91 18 -19 18 -23 6 -36 -8 -8 -16 -13 -19
-12 -2 1 3 -5 12 -13 9 -8 19 -23 23 -32 4 -13 17 -18 42 -18 l35 0 0 235 c0
179 -3 237 -12 240 -7 3 -14 22 -16 42 -1 20 -6 40 -11 43 -16 9 -22 50 -25
170 -6 204 -7 208 -17 180 -6 -18 -7 -8 -4 33 4 44 2 57 -8 57 -18 0 -37 43
-30 69 4 16 1 21 -15 21 -25 0 -62 -37 -62 -62 0 -9 -9 -22 -20 -28 -13 -7
-20 -21 -20 -40 0 -17 -4 -30 -10 -30 -5 0 -12 -11 -16 -25 -3 -14 -13 -25
-20 -25 -8 0 -29 -10 -45 -22 -23 -18 -44 -23 -86 -22 -31 0 -58 5 -62 12 -17
28 -161 -28 -161 -63 0 -11 -61 -65 -73 -65 -6 0 -28 -17 -49 -37 -23 -23 -38
-31 -38 -22 0 8 -9 20 -20 27 -11 7 -20 21 -20 32 0 17 -7 39 -31 95 -18 41 9
285 34 309 9 9 21 41 28 71 8 36 22 64 40 82 16 16 29 35 29 44 0 8 4 19 9 25
5 5 22 32 37 59 23 41 28 61 26 110 -2 86 16 155 50 187 16 15 37 47 47 72 11
24 24 47 30 50 5 4 7 13 4 22 -3 9 4 24 16 35 23 21 28 39 11 39 -7 0 -8 17
-4 48 4 31 0 71 -11 114 -13 53 -14 74 -5 107 6 23 8 46 5 51 -4 6 1 17 9 26
9 8 16 23 16 33 0 9 5 22 11 28 15 15 -24 68 -65 87 -82 38 -146 64 -202 81
-52 15 -63 23 -73 49 -21 57 -24 60 -64 45 -31 -11 -39 -10 -61 5 -14 9 -26
25 -26 37 0 11 -8 23 -17 26 -10 4 -29 15 -42 25 -29 22 -57 23 -65 3 -7 -20
-36 -19 -36 1 0 23 -62 14 -75 -11 -16 -32 -66 -95 -111 -141 -37 -37 -42 -48
-49 -105 -10 -87 -24 -117 -92 -197 -53 -63 -62 -70 -105 -76 -26 -4 -55 -3
-65 2 -10 5 -58 17 -108 27 -49 9 -92 20 -95 25 -17 28 -145 34 -162 7 -12
-18 -10 -23 17 -55 14 -17 25 -38 25 -48 0 -10 10 -29 23 -43 36 -40 59 -109
45 -135 -6 -11 -11 -22 -10 -23 7 -11 -2 -23 -20 -28 -13 -4 -32 -16 -43 -26
-27 -25 -136 -29 -159 -6 -9 8 -38 23 -66 32 -27 9 -50 21 -50 26 0 5 -6 9
-14 9 -15 0 -46 83 -46 122 0 13 11 56 25 96 14 41 25 80 25 87 0 7 18 32 40
55 33 34 40 49 40 81 0 21 -4 39 -8 39 -13 0 -33 66 -26 84 3 9 -4 32 -16 53
-16 27 -20 45 -15 71 5 25 3 32 -6 26 -8 -4 -10 -3 -5 5 10 15 -22 99 -51 134
-13 16 -23 32 -23 37 0 4 -18 35 -40 68 -22 33 -40 63 -40 66 0 11 -27 36 -38
36 -5 0 -16 9 -23 21 -12 16 -25 20 -76 21 -58 1 -63 3 -63 22 0 26 -18 46
-41 46 -25 0 -35 -21 -15 -32 9 -5 16 -16 16 -23 0 -9 9 -15 21 -15 21 0 22
-3 15 -79 -6 -78 2 -114 36 -163 9 -13 9 -22 0 -40 -15 -27 -19 -100 -8 -145
6 -27 4 -33 -8 -33 -9 0 -16 -5 -16 -12 0 -6 -10 -22 -21 -34 -20 -21 -21 -27
-10 -85 10 -60 9 -65 -12 -89 -13 -14 -36 -42 -51 -63 -27 -37 -28 -41 -16
-78 11 -32 11 -46 0 -79 -17 -51 -5 -94 27 -98 19 -3 24 -12 29 -52 4 -28 9
-48 13 -46 3 2 4 -16 2 -40 l-3 -44 41 0 c30 0 41 -4 41 -15 0 -8 9 -15 20
-15 11 0 20 -5 20 -10 0 -6 15 -10 33 -9 60 5 87 0 87 -16 0 -8 6 -15 14 -15
18 0 28 -65 14 -96 -6 -13 -15 -24 -20 -24 -4 0 -8 -6 -8 -14 0 -8 -8 -17 -17
-20 -26 -9 -84 -63 -87 -81 -1 -8 -11 -21 -21 -29 -17 -12 -18 -18 -7 -54 13
-41 43 -68 97 -87 29 -10 65 -5 107 16 10 5 24 9 32 9 26 0 168 51 183 65 17
17 33 20 33 4 0 -18 17 -1 34 36 9 19 23 35 31 35 8 0 15 5 15 10 0 6 12 10
28 10 21 0 24 -2 12 -10 -11 -7 -3 -9 29 -8 27 1 46 -3 49 -10 2 -7 12 -12 23
-12 35 0 99 -39 99 -60 0 -10 5 -22 10 -25 6 -4 19 -24 31 -46 11 -22 31 -49
44 -61 13 -12 22 -24 20 -28 -3 -5 1 -10 8 -13 11 -4 13 -61 12 -284 -1 -272
-1 -279 -25 -328 -29 -60 -59 -95 -82 -95 -10 0 -18 -6 -18 -12 0 -16 -97 -15
-113 1 -6 6 -21 11 -33 11 -13 0 -38 8 -56 19 -41 23 -148 45 -184 38 -15 -3
-44 1 -64 8 -57 20 -177 24 -166 6 8 -12 -30 -20 -79 -16 -22 1 -49 -4 -62
-12 -12 -8 -31 -12 -41 -9 -12 4 -24 0 -32 -9 -11 -14 -10 -17 8 -22 31 -8 16
-23 -23 -23 -18 0 -35 -5 -37 -10 -5 -15 -69 9 -90 33 -10 12 -18 36 -18 57 0
29 -6 41 -24 54 -14 8 -26 11 -28 7 -2 -5 -21 -3 -43 5 -22 7 -55 14 -73 14
-18 0 -52 9 -74 20 -53 25 -61 25 -53 -1 7 -21 6 -21 -15 -6 -21 15 -24 14
-56 -19 -34 -33 -54 -43 -54 -25 0 5 7 11 15 14 32 13 83 140 106 262 14 79 5
362 -13 415 -9 25 -19 57 -22 72 -3 14 -19 39 -36 55 -16 15 -30 37 -30 48 0
25 -36 80 -52 80 -6 0 -22 20 -35 45 -24 46 -95 120 -115 120 -9 0 -9 3 0 12
8 8 6 18 -10 40 -19 28 -20 31 -4 46 16 16 17 16 10 0 -4 -14 -1 -18 14 -18
23 0 72 -53 72 -78 0 -9 14 -32 30 -51 17 -18 30 -38 30 -43 0 -5 5 -6 10 -3
6 3 10 0 10 -7 1 -7 11 -26 24 -42 22 -26 27 -27 57 -18 19 5 78 18 131 27 54
10 106 24 115 31 17 12 17 14 1 44 -10 18 -18 43 -18 56 0 13 -7 32 -15 42
-55 63 -76 93 -71 101 15 24 -171 94 -196 73 -7 -6 -38 -11 -68 -12 -77 -2
-82 -2 -77 13 2 6 -4 31 -15 55 -10 24 -18 58 -18 76 0 38 -13 56 -62 85 -44
26 -88 100 -88 147 0 18 -4 36 -10 39 -5 3 -10 16 -10 29 0 12 -7 31 -15 42
-8 10 -15 37 -15 59 0 23 -7 68 -16 100 -9 33 -20 79 -24 103 -4 23 -20 59
-37 80 -32 40 -39 60 -54 162 -5 36 -14 74 -19 85 -5 11 -13 49 -19 85 -6 36
-13 80 -17 99 -10 50 -127 217 -219 312 -14 15 -25 32 -25 38 0 6 -15 17 -32
25 -18 7 -43 25 -55 40 l-23 26 -1404 0 c-809 0 -1407 -4 -1410 -9z m-462
-406 c-7 -17 -40 -29 -55 -19 -8 4 -3 11 12 20 32 18 50 17 43 -1z m-499 -645
c3 -5 -3 -10 -15 -10 -12 0 -18 5 -15 10 3 6 10 10 15 10 5 0 12 -4 15 -10z
m-75 -105 c-7 -8 -19 -15 -27 -15 -13 0 -13 3 -3 15 7 8 19 15 27 15 13 0 13
-3 3 -15z m-70 -79 c0 -3 -4 -8 -10 -11 -5 -3 -10 -1 -10 4 0 6 5 11 10 11 6
0 10 -2 10 -4z m7437 -328 c-2 -13 -4 -5 -4 17 -1 22 1 32 4 23 2 -10 2 -28 0
-40z m-5137 -62 c0 -11 -19 -15 -25 -6 -3 5 1 10 9 10 9 0 16 -2 16 -4z m30
-41 c-7 -9 -15 -13 -17 -11 -7 7 7 26 19 26 6 0 6 -6 -2 -15z m-52 -7 c-6 -18
-28 -21 -28 -4 0 9 7 16 16 16 9 0 14 -5 12 -12z m182 -153 c0 -8 -4 -15 -10
-15 -5 0 -10 7 -10 15 0 8 5 15 10 15 6 0 10 -7 10 -15z m85 -11 c-9 -10 -22
-13 -33 -9 -14 7 -13 9 8 15 39 12 43 11 25 -6z m95 -63 c0 -10 -25 -21 -48
-21 -12 0 -9 4 8 14 31 17 40 19 40 7z m217 -63 c-3 -8 -6 -5 -6 6 -1 11 2 17
5 13 3 -3 4 -12 1 -19z m-132 -38 c-3 -5 -24 -10 -46 -10 -21 0 -39 5 -39 10
0 6 21 10 46 10 27 0 43 -4 39 -10z m62 4 c-3 -3 -12 -4 -19 -1 -8 3 -5 6 6 6
11 1 17 -2 13 -5z m253 -24 c0 -5 -5 -10 -11 -10 -5 0 -7 5 -4 10 3 6 8 10 11
10 2 0 4 -4 4 -10z m-210 -50 c0 -5 -7 -10 -15 -10 -8 0 -15 5 -15 10 0 6 7
10 15 10 8 0 15 -4 15 -10z m92 -15 c0 -5 -5 -11 -11 -13 -6 -2 -11 4 -11 13
0 9 5 15 11 13 6 -2 11 -8 11 -13z m-302 -15 c20 -6 21 -8 5 -8 -11 0 -31 4
-45 8 -20 6 -21 8 -5 8 11 0 31 -4 45 -8z m40 -41 c0 -5 -4 -9 -10 -9 -5 0
-10 7 -10 16 0 8 5 12 10 9 6 -3 10 -10 10 -16z m224 -8 c4 -5 -3 -7 -14 -4
-23 6 -26 13 -6 13 8 0 17 -4 20 -9z m71 -21 c3 -5 2 -10 -4 -10 -5 0 -13 5
-16 10 -3 6 -2 10 4 10 5 0 13 -4 16 -10z m1625 -20 c0 -5 9 -10 20 -10 11 0
23 -7 26 -15 4 -8 13 -15 21 -15 13 0 13 -3 3 -15 -13 -15 -5 -20 28 -16 6 1
12 -2 12 -7 0 -13 33 -48 53 -55 9 -4 20 -15 24 -24 3 -10 15 -29 24 -42 10
-12 22 -39 25 -60 4 -20 15 -51 25 -69 11 -17 18 -35 18 -39 0 -4 4 -9 10 -11
14 -5 15 30 1 44 -5 5 -6 15 0 24 10 17 11 15 29 -62 15 -64 15 -73 -4 -58
-22 18 -36 3 -23 -25 9 -21 7 -34 -17 -83 -16 -31 -35 -60 -41 -65 -8 -4 -12
-25 -10 -52 3 -48 -1 -59 -24 -67 -8 -3 -21 -26 -29 -52 -19 -64 -31 -67 -31
-6 0 28 -4 49 -9 46 -5 -3 -7 -23 -4 -44 10 -78 -71 -122 -155 -84 l-41 18 30
18 c17 10 35 29 41 42 6 13 15 24 20 24 4 0 8 13 8 30 0 38 33 59 58 37 28
-24 62 -2 87 56 8 19 12 37 8 40 -3 3 9 35 26 70 32 66 44 167 20 167 -7 0 -9
10 -5 25 4 14 2 25 -4 25 -5 0 -16 21 -22 46 -7 26 -18 49 -25 51 -6 3 -9 11
-6 19 3 7 -2 17 -11 20 -9 3 -16 15 -16 25 0 10 -7 19 -15 19 -9 0 -18 7 -21
15 -4 9 -19 15 -40 15 -34 0 -47 21 -23 36 7 4 7 10 1 16 -16 16 -70 -12 -65
-32 3 -10 -2 -24 -11 -32 -8 -9 -12 -18 -9 -22 6 -5 -39 -26 -58 -26 -16 0
-10 29 11 50 11 11 20 23 20 28 0 4 9 13 19 19 11 7 22 26 26 43 6 28 25 43
25 20z m-1540 -16 c0 -8 -4 -12 -10 -9 -5 3 -10 10 -10 16 0 5 5 9 10 9 6 0
10 -7 10 -16z m-455 -105 c-4 -5 7 -12 24 -15 44 -9 38 -24 -9 -24 -39 0 -40
1 -36 28 2 15 5 28 5 30 1 2 6 0 11 -3 6 -4 8 -11 5 -16z m-1625 -59 c0 -17
-7 -20 -52 -20 -58 0 -58 4 -2 24 52 19 54 19 54 -4z m1680 -10 c0 -5 -12 -10
-27 -10 -22 0 -25 2 -13 10 20 13 40 13 40 0z m58 -7 c-10 -2 -26 -2 -35 0
-10 3 -2 5 17 5 19 0 27 -2 18 -5z m37 -22 c3 -5 1 -12 -5 -16 -5 -3 -10 1
-10 9 0 18 6 21 15 7z m-95 -31 c0 -5 -7 -10 -16 -10 -8 0 -12 5 -9 10 3 6 10
10 16 10 5 0 9 -4 9 -10z m-60 -20 c0 -5 -4 -10 -10 -10 -5 0 -10 5 -10 10 0
6 5 10 10 10 6 0 10 -4 10 -10z m2285 0 c3 -5 1 -10 -4 -10 -6 0 -11 5 -11 10
0 6 2 10 4 10 3 0 8 -4 11 -10z m-2245 -44 c0 -8 -4 -17 -9 -20 -10 -7 -23 19
-14 28 11 11 23 6 23 -8z m-2193 -18 c-3 -8 -6 -5 -6 6 -1 11 2 17 5 13 3 -3
4 -12 1 -19z m3043 -38 c0 -5 -2 -10 -4 -10 -3 0 -8 5 -11 10 -3 6 -1 10 4 10
6 0 11 -4 11 -10z m-3022 -42 c-2 -17 -8 -33 -14 -35 -6 -2 -8 10 -6 32 5 44
24 47 20 3z m2672 11 c0 -5 -4 -9 -10 -9 -5 0 -10 7 -10 16 0 8 5 12 10 9 6
-3 10 -10 10 -16z m-2845 -30 c9 -13 -6 -59 -19 -59 -6 0 -18 5 -26 10 -12 8
-13 11 -1 19 11 7 11 9 0 13 -22 7 -3 37 21 31 11 -3 23 -9 25 -14z m2850 -8
c3 -5 1 -12 -4 -15 -5 -3 -11 1 -15 9 -6 16 9 21 19 6z m-812 -8 c-7 -2 -19
-2 -25 0 -7 3 -2 5 12 5 14 0 19 -2 13 -5z m883 0 c-4 -4 10 -12 30 -18 36
-10 37 -11 20 -28 -16 -16 -16 -18 -1 -23 9 -4 24 -8 33 -8 21 -3 73 -27 90
-43 9 -9 9 -14 1 -19 -15 -9 27 -33 59 -34 12 0 25 -7 28 -15 9 -23 21 -18 32
13 10 25 10 23 11 -20 1 -42 -2 -49 -26 -61 -26 -14 -26 -15 -5 -21 30 -10 28
-26 -3 -26 -14 0 -25 -4 -25 -10 0 -5 11 -10 25 -10 14 0 25 5 25 10 0 6 7 10
15 10 18 0 19 11 3 29 -11 11 -10 13 5 8 10 -4 17 -2 17 5 0 6 11 1 25 -12 13
-12 24 -30 23 -39 -3 -41 3 -81 12 -81 6 0 10 12 10 26 0 32 30 30 45 -4 5
-12 13 -22 18 -22 22 0 33 -25 21 -48 -7 -15 -14 -20 -18 -13 -13 21 -26 11
-26 -19 0 -32 9 -37 28 -18 9 9 12 9 12 -4 0 -10 13 -17 37 -21 21 -4 44 -15
53 -26 11 -14 23 -18 42 -14 l27 5 -29 25 c-16 13 -34 22 -40 18 -5 -3 -10 -1
-10 4 0 6 -5 11 -11 11 -6 0 -18 8 -27 17 -16 15 -15 16 9 10 18 -5 31 -2 39
7 9 12 6 18 -13 31 -24 15 -49 54 -27 40 6 -4 10 10 10 33 0 23 6 45 15 52 20
16 85 4 85 -15 0 -11 11 -15 38 -14 37 0 92 17 62 18 -13 1 -13 3 0 11 12 8
12 11 -3 28 -9 10 -17 25 -16 33 0 10 2 10 6 2 2 -7 13 -13 23 -13 24 0 37
-20 20 -30 -15 -9 -4 -30 16 -30 21 0 17 -11 -18 -47 -24 -25 -28 -33 -15 -33
9 0 17 3 17 8 0 4 13 13 29 20 17 8 31 22 33 34 2 12 10 23 18 25 12 4 12 3 1
-5 -10 -7 -10 -11 -1 -17 8 -5 7 -12 -5 -25 -10 -11 -12 -21 -7 -24 12 -7 3
-48 -11 -58 -15 -9 12 -68 32 -69 14 0 14 -1 -1 -7 -10 -4 -27 -24 -38 -44
-14 -27 -16 -36 -6 -32 22 8 30 -16 12 -34 -12 -12 -19 -14 -24 -6 -4 6 -26
15 -50 19 -43 7 -43 7 -36 -20 5 -18 2 -30 -7 -36 -11 -7 -11 -9 -1 -9 8 0 4
-9 -10 -23 -13 -12 -28 -31 -34 -42 -6 -11 -16 -21 -23 -21 -22 -3 -23 -4 -11
-19 7 -8 22 -13 34 -11 11 2 15 1 8 -1 -7 -3 -10 -9 -7 -14 4 -5 -1 -9 -9 -9
-9 0 -16 -7 -16 -15 0 -9 9 -15 23 -15 22 -1 22 -1 -3 -15 -14 -7 -26 -11 -27
-7 -1 4 -4 20 -8 36 -6 27 -7 27 -20 10 -8 -11 -15 -27 -15 -37 0 -10 -7 -20
-15 -23 -22 -9 -20 -64 3 -65 11 -1 8 -3 -7 -8 -25 -7 -24 -7 13 -29 20 -12
41 -22 47 -22 5 0 9 -4 9 -10 0 -16 -46 -12 -61 6 -12 14 -14 14 -20 -3 -3
-10 -3 -20 0 -23 4 -3 14 -18 24 -33 15 -24 16 -33 7 -63 -11 -31 -10 -37 7
-49 16 -13 16 -16 3 -25 -13 -8 -13 -11 -1 -19 9 -6 12 -19 8 -40 -4 -20 -2
-31 4 -31 7 0 9 -9 6 -21 -3 -11 0 -22 7 -25 15 -6 19 -51 6 -59 -16 -10 -11
-25 8 -25 27 0 31 8 22 41 -5 16 -5 29 -1 29 5 0 18 -31 31 -69 22 -71 20
-111 -6 -111 -19 0 -18 -19 1 -26 8 -4 15 -14 15 -23 -1 -14 -2 -14 -11 2 -5
9 -18 17 -29 17 -10 0 -21 6 -24 13 -3 6 -4 0 -1 -15 3 -17 1 -28 -5 -28 -6 0
-8 -5 -4 -11 4 -8 9 -7 15 2 8 12 11 11 19 -1 7 -11 5 -16 -6 -18 -17 -4 -11
-37 12 -63 16 -18 18 -39 5 -39 -5 0 -15 17 -21 38 -13 39 -37 72 -52 72 -5 0
-6 -9 -3 -20 4 -14 2 -20 -7 -18 -9 2 -12 -7 -10 -32 2 -24 0 -31 -6 -21 -6 7
-15 10 -21 7 -6 -4 -14 0 -17 8 -12 31 -21 15 -20 -34 1 -35 -4 -54 -14 -60
-11 -7 -17 -4 -21 8 -5 14 -8 11 -14 -10 -4 -16 -5 -35 -1 -43 3 -9 0 -15 -10
-15 -8 0 -17 7 -20 15 -6 15 -24 12 -24 -4 0 -4 13 -28 30 -52 29 -43 42 -81
16 -47 -7 10 -15 15 -18 12 -3 -3 -12 8 -19 25 -9 21 -16 26 -22 18 -5 -7 -7
-3 -5 13 1 14 -1 31 -6 38 -4 7 -3 18 2 25 12 14 -21 67 -34 55 -4 -4 -1 -14
5 -22 19 -22 3 -39 -30 -32 -41 8 -36 -10 7 -24 31 -11 35 -15 29 -37 -4 -18
0 -29 17 -42 15 -13 22 -29 22 -54 0 -20 4 -33 9 -30 5 3 3 -4 -5 -16 l-13
-21 -7 21 c-5 13 -4 27 3 36 7 7 9 16 5 20 -3 4 -12 -2 -20 -12 -7 -10 -18
-15 -24 -11 -6 3 -15 -1 -20 -10 -5 -9 -12 -15 -15 -15 -27 4 -29 -1 -24 -46
4 -31 3 -41 -3 -28 -5 11 -9 34 -9 52 -1 36 -10 46 -31 32 -10 -6 -11 -9 -2
-9 7 0 12 -15 12 -40 0 -22 -4 -40 -10 -40 -5 0 -10 4 -10 8 0 10 -61 33 -71
26 -16 -9 -9 -24 10 -24 11 0 23 -4 26 -10 7 -12 -5 -12 -57 -4 -21 4 -38 11
-38 16 0 5 9 6 20 3 27 -8 26 10 -2 29 -18 13 -19 17 -7 32 12 15 12 16 -9 10
-13 -5 -22 -3 -22 3 0 6 -11 11 -24 11 -14 0 -28 5 -32 11 -3 6 -15 9 -25 6
-10 -3 -19 -1 -21 3 -6 16 -53 16 -53 0 0 -20 -31 -25 -49 -8 -49 46 -79 55
-96 28 -5 -8 -12 -11 -16 -8 -4 4 -15 3 -25 -3 -15 -8 -25 -4 -49 20 -16 17
-32 27 -35 22 -3 -6 -1 -12 5 -16 5 -3 10 -11 10 -16 0 -6 -14 -1 -30 11 -35
25 -62 23 -36 -2 19 -20 22 -35 3 -19 -16 13 -27 5 -27 -21 0 -23 -1 -23 -45
3 -27 17 -38 19 -49 10 -11 -9 -16 -9 -23 1 -4 7 -16 20 -27 28 -17 14 -18 13
-14 -15 3 -17 3 -24 1 -17 -6 15 -35 16 -51 0 -9 -9 -12 -9 -12 0 0 7 5 12 10
12 6 0 10 7 10 16 0 10 -6 14 -15 10 -17 -6 -21 19 -5 29 8 5 7 11 0 20 -7 8
-9 18 -6 24 3 5 2 11 -2 13 -13 5 -24 58 -12 58 5 0 10 6 10 14 0 7 7 19 16
27 10 8 14 23 12 41 -3 21 1 32 14 39 10 5 18 19 18 29 0 11 5 20 10 20 6 0
10 -5 10 -12 0 -9 3 -8 13 1 10 11 10 14 0 18 -7 3 -13 21 -13 40 0 24 -7 42
-23 57 -13 12 -26 29 -30 39 -3 9 -16 17 -27 17 -11 0 -20 7 -20 15 0 8 -7 15
-15 15 -9 0 -20 11 -25 25 -5 14 -15 22 -23 20 -7 -3 -23 5 -34 17 -30 32 -51
48 -62 48 -5 0 -20 9 -33 20 -12 11 -35 29 -50 40 -15 12 -25 26 -23 33 9 24
-13 39 -59 39 -51 1 -57 11 -27 49 23 30 36 85 22 94 -20 11 -13 45 9 45 21 0
29 29 8 31 -10 0 -10 2 0 6 18 7 15 33 -5 33 -14 0 -14 3 -5 12 9 9 15 10 20
2 4 -6 24 -14 46 -18 33 -6 38 -5 32 9 -3 10 -2 14 5 10 17 -11 79 5 79 19 0
8 17 16 40 20 22 3 40 10 40 14 0 4 23 16 50 26 57 20 81 43 34 32 -21 -5 -25
-4 -14 4 8 5 30 10 48 10 20 0 31 4 27 10 -4 6 -1 17 5 25 10 12 7 13 -22 4
-18 -5 -63 -16 -100 -23 l-68 -14 4 36 c6 46 46 75 46 33 0 -28 19 -36 38 -17
16 16 16 17 0 10 -28 -10 -22 22 10 55 15 15 33 26 40 24 6 -3 12 2 12 11 0
18 16 21 25 5 11 -17 30 -4 30 22 0 20 5 24 25 21 14 -1 31 -11 39 -22 18 -27
44 -27 36 0 -9 30 4 60 26 60 10 0 19 -2 19 -4 0 -2 3 -13 6 -23 5 -15 4 -15
-5 -3 -13 18 -35 1 -29 -24 3 -14 6 -14 36 1 18 9 31 21 28 28 -5 13 40 40 61
36 6 -1 18 8 27 20 12 17 18 20 29 11 8 -7 17 -9 20 -5 4 3 7 1 7 -6 0 -7 8
-11 18 -9 9 1 23 -1 30 -5 7 -5 12 -4 12 2 0 6 -4 11 -10 11 -5 0 -10 11 -10
25 0 19 -5 25 -22 26 -15 0 -18 3 -8 6 8 3 30 21 49 40 40 39 35 51 -32 70
-26 7 -33 11 -19 12 12 1 22 7 22 15 0 16 24 28 43 20 7 -2 21 2 32 11 20 15
20 15 1 30 -19 14 -18 15 16 15 35 0 36 1 40 45 4 54 1 65 -18 65 -16 0 -19
-16 -4 -25 6 -3 10 -19 10 -36 0 -27 -3 -29 -35 -29 -21 0 -44 8 -55 18 -18
16 -18 20 -5 38 19 25 19 38 -1 30 -8 -3 -28 -3 -42 1 -26 7 -25 7 12 14 28 4
44 2 54 -7 7 -8 18 -11 23 -8 6 3 2 12 -8 20 -16 13 -15 14 17 12 30 -3 35 0
33 17 -1 11 0 15 3 9 3 -7 13 -10 23 -7 21 5 61 -24 61 -45 0 -7 4 -11 9 -7 5
3 12 1 16 -5 10 -16 25 -11 25 8 0 26 -11 34 -27 21 -10 -9 -13 -7 -13 10 0
11 -4 21 -10 21 -5 0 -7 6 -4 14 3 9 -5 20 -23 30 l-28 15 25 10 c31 12 35 13
26 4z m-2880 -30 c-10 -10 -19 5 -10 18 6 11 8 11 12 0 2 -7 1 -15 -2 -18z
m-1482 -102 c17 -19 17 -20 -11 -23 -15 -2 -45 -1 -65 1 -29 2 -38 7 -38 22 0
28 89 27 114 0z m4086 5 c0 -3 -4 -8 -10 -11 -5 -3 -10 -1 -10 4 0 6 5 11 10
11 6 0 10 -2 10 -4z m-24 -45 c-9 -10 -16 -23 -16 -30 0 -9 -5 -9 -20 -1 -15
8 -26 7 -42 -1 -27 -15 -158 -21 -158 -8 0 5 9 9 20 9 12 0 24 10 30 23 l9 22
0 -23 c1 -20 4 -21 22 -12 11 7 18 18 15 25 -6 16 26 22 102 17 50 -4 52 -5
38 -21z m81 23 c-3 -3 -12 -4 -19 -1 -8 3 -5 6 6 6 11 1 17 -2 13 -5z m1481
-45 c-3 -33 -4 -33 -8 8 -3 23 -2 39 3 34 5 -5 7 -24 5 -42z m-4332 27 c15
-16 18 -26 6 -26 -4 0 -13 9 -20 20 -14 23 -7 26 14 6z m104 4 c0 -5 -2 -10
-4 -10 -3 0 -8 5 -11 10 -3 6 -1 10 4 10 6 0 11 -4 11 -10z m2410 -23 c0 -8
-10 -19 -22 -26 l-23 -12 23 5 c12 2 22 0 22 -5 0 -5 -13 -9 -29 -9 -16 0 -31
-5 -33 -12 -3 -7 -23 -13 -49 -13 -33 0 -44 -4 -43 -15 1 -9 -7 -17 -16 -17
-16 -1 -16 1 -1 33 13 29 20 34 43 31 15 -2 25 0 22 5 -5 7 19 13 40 9 5 -1
12 2 15 6 5 7 41 31 49 32 1 1 2 -5 2 -12z m-2434 -36 c-4 -6 -14 -11 -22 -11
-21 0 -17 -19 9 -41 19 -16 20 -18 4 -19 -23 0 -67 29 -67 44 0 6 14 17 30 23
23 9 29 16 24 30 -6 17 -6 17 11 1 9 -9 14 -21 11 -27z m3344 -1 c0 -5 -7 -10
-15 -10 -8 0 -15 5 -15 10 0 6 7 10 15 10 8 0 15 -4 15 -10z m210 0 c0 -5 -8
-10 -17 -10 -15 0 -16 2 -3 10 19 12 20 12 20 0z m-825 -30 c3 -5 -3 -10 -14
-10 -12 0 -21 5 -21 10 0 6 6 10 14 10 8 0 18 -4 21 -10z m-515 -20 c0 -5 -12
-10 -26 -10 -14 0 -23 4 -19 10 3 6 15 10 26 10 10 0 19 -4 19 -10z m1250 -26
c0 -8 -7 -14 -15 -14 -17 0 -18 2 -9 24 7 18 24 12 24 -10z m-1314 -13 c-3 -5
-15 -7 -26 -4 -28 7 -25 13 6 13 14 0 23 -4 20 -9z m1351 3 c-3 -3 -12 -4 -19
-1 -8 3 -5 6 6 6 11 1 17 -2 13 -5z m-1332 -173 c20 -27 52 -59 72 -71 l36
-21 -30 -19 c-45 -27 -122 -52 -170 -54 -46 -3 -83 20 -83 52 0 10 -5 23 -11
29 -16 16 3 46 45 68 20 11 36 23 36 27 0 5 9 8 20 8 11 0 23 7 26 15 10 25
22 18 59 -34z m3165 45 c0 -3 -4 -8 -10 -11 -5 -3 -10 -1 -10 4 0 6 5 11 10
11 6 0 10 -2 10 -4z m-924 -113 c-3 -20 -22 -28 -31 -13 -8 13 13 42 25 35 5
-3 7 -13 6 -22z m-1906 -3 c8 -5 11 -10 5 -10 -5 0 -17 5 -25 10 -8 5 -10 10
-5 10 6 0 17 -5 25 -10z m-3706 -15 c-7 -18 -56 -15 -62 3 -2 8 9 12 32 12 28
0 34 -3 30 -15z m3424 -183 c-2 -15 -8 -27 -15 -27 -6 0 -15 -3 -19 -7 -14
-15 -26 -8 -21 12 5 21 -7 28 -18 10 -3 -5 -11 -10 -16 -10 -15 0 10 40 29 48
9 3 23 12 31 20 12 12 16 11 23 -2 5 -9 8 -29 6 -44z m1610 17 c15 -6 22 -13
16 -19 -14 -14 -51 -1 -57 20 -5 20 5 38 11 20 2 -6 16 -16 30 -21z m437 21
c-4 6 5 10 19 10 19 0 26 -5 26 -20 0 -10 7 -40 16 -66 16 -47 17 -58 29 -214
4 -47 10 -113 15 -148 8 -57 7 -65 -11 -83 -11 -11 -18 -27 -15 -36 3 -8 6
-21 6 -29 0 -8 7 -14 15 -14 8 0 15 -9 15 -20 0 -37 -28 -21 -35 20 -4 22 -11
40 -16 40 -6 0 -7 15 -4 34 4 20 2 43 -5 56 -11 21 -20 69 -24 129 0 13 -7 26
-15 29 -8 3 -11 0 -7 -6 3 -5 2 -21 -3 -34 -6 -14 -10 -17 -11 -8 -1 8 -4 32
-6 53 -1 21 -8 45 -15 53 -12 15 -7 18 26 14 19 -2 19 -2 2 18 -16 17 -17 24
-6 43 9 17 9 24 0 27 -6 2 -11 9 -11 16 0 6 -8 22 -17 36 -18 26 -26 65 -17
92 4 14 10 15 30 8 17 -7 23 -7 19 0z m-555 -50 c0 -5 -4 -10 -10 -10 -5 0
-10 5 -10 10 0 6 5 10 10 10 6 0 10 -4 10 -10z m-2180 -21 c0 -5 -7 -9 -15 -9
-8 0 -15 7 -15 15 0 9 6 12 15 9 8 -4 15 -10 15 -15z m740 -9 c0 -5 -19 -9
-42 -9 l-43 2 40 7 c22 4 41 8 43 9 1 0 2 -3 2 -9z m1523 -38 c-3 -23 -10 -42
-14 -42 -14 0 -11 78 4 83 17 6 16 7 10 -41z m84 16 c-3 -8 -6 -5 -6 6 -1 11
2 17 5 13 3 -3 4 -12 1 -19z m-167 2 c0 -5 -10 -10 -22 -10 -19 0 -20 2 -8 10
19 13 30 13 30 0z m0 -50 c0 -5 -4 -10 -9 -10 -6 0 -13 5 -16 10 -3 6 1 10 9
10 9 0 16 -4 16 -10z m-15 -60 c3 -5 -1 -10 -9 -10 -9 0 -16 5 -16 10 0 6 4
10 9 10 6 0 13 -4 16 -10z m43 -2 c18 -18 15 -28 -8 -28 -13 0 -20 7 -20 20 0
23 10 26 28 8z m-116 -25 c-10 -4 -10 -8 0 -21 12 -14 10 -14 -10 -3 -25 13
-21 31 6 30 11 0 13 -2 4 -6z m-2778 -106 c25 -35 53 -60 80 -72 29 -13 36
-20 24 -22 -10 -3 -18 -8 -18 -13 0 -18 -96 -39 -135 -30 -40 9 -59 28 -75 76
-9 28 -8 34 17 61 15 16 37 35 48 41 11 6 20 12 20 12 0 0 18 -24 39 -53z
m3048 25 c-7 -2 -12 -11 -12 -19 0 -9 -3 -14 -6 -10 -10 10 7 48 19 40 8 -5 8
-8 -1 -11z m-272 -6 c0 -11 -19 -15 -25 -6 -3 5 1 10 9 10 9 0 16 -2 16 -4z
m80 -6 c0 -5 -4 -10 -10 -10 -5 0 -10 5 -10 10 0 6 5 10 10 10 6 0 10 -4 10
-10z m100 -10 c0 -11 -2 -20 -4 -20 -2 0 -6 9 -9 20 -3 11 -1 20 4 20 5 0 9
-9 9 -20z m-40 -5 c0 -8 -4 -15 -10 -15 -5 0 -10 7 -10 15 0 8 5 15 10 15 6 0
10 -7 10 -15z m-3134 -22 c-10 -10 -19 5 -10 18 6 11 8 11 12 0 2 -7 1 -15 -2
-18z m3010 -30 c-2 -16 -4 -31 -5 -35 0 -5 -10 -8 -22 -8 -12 0 -19 5 -16 13
2 6 11 11 21 9 19 -3 22 14 4 21 -10 4 -9 8 2 16 8 6 16 11 17 11 1 0 0 -12
-1 -27z m148 12 c-4 -8 -10 -15 -15 -15 -4 0 -6 7 -3 15 4 8 10 15 15 15 4 0
6 -7 3 -15z m-2034 -35 c9 -6 10 -10 3 -10 -6 0 -18 -3 -27 -6 -11 -4 -16 -1
-16 10 0 18 17 21 40 6z m2095 0 c3 -5 1 -10 -4 -10 -6 0 -11 5 -11 10 0 6 2
10 4 10 3 0 8 -4 11 -10z m-1895 -26 c0 -8 -5 -12 -10 -9 -6 4 -8 11 -5 16 9
14 15 11 15 -7z m1720 -45 c0 -5 -7 -9 -15 -9 -8 0 -15 7 -15 15 0 9 6 12 15
9 8 -4 15 -10 15 -15z m100 7 c0 -2 -7 -6 -15 -10 -8 -3 -15 -1 -15 4 0 6 7
10 15 10 8 0 15 -2 15 -4z m-1730 -30 c0 -3 -4 -8 -10 -11 -5 -3 -10 -1 -10 4
0 6 5 11 10 11 6 0 10 -2 10 -4z m1618 -14 c3 -9 -2 -13 -14 -10 -9 1 -19 9
-22 16 -3 9 2 13 14 10 9 -1 19 -9 22 -16z m724 -17 c0 -5 -5 -11 -11 -13 -6
-2 -11 4 -11 13 0 9 5 15 11 13 6 -2 11 -8 11 -13z m238 0 c0 -8 -4 -15 -10
-15 -5 0 -7 7 -4 15 4 8 8 15 10 15 2 0 4 -7 4 -15z m-867 -109 c-3 -4 -9 -2
-14 5 -13 22 -11 31 5 17 8 -7 12 -17 9 -22z m627 -12 c0 -9 -5 -14 -12 -12
-18 6 -21 28 -4 28 9 0 16 -7 16 -16z m-601 -112 l-1 -27 -7 27 c-3 15 -14 37
-23 48 -10 11 -18 24 -18 28 0 4 12 -6 25 -21 15 -16 25 -39 24 -55z m-2219
23 c0 -8 -7 -15 -15 -15 -26 0 -18 20 13 29 1 1 2 -6 2 -14z m90 -15 c0 -5 -4
-10 -10 -10 -5 0 -10 5 -10 10 0 6 5 10 10 10 6 0 10 -4 10 -10z m7 -36 c-3
-3 -12 -4 -19 -1 -8 3 -5 6 6 6 11 1 17 -2 13 -5z m2083 -54 c0 -31 -15 -30
-16 1 -1 15 3 26 7 23 5 -3 9 -14 9 -24z m-2103 -122 c-3 -8 -6 -5 -6 6 -1 11
2 17 5 13 3 -3 4 -12 1 -19z m1973 12 c0 -5 -2 -10 -4 -10 -3 0 -8 5 -11 10
-3 6 -1 10 4 10 6 0 11 -4 11 -10z m-1640 -10 c0 -5 -4 -10 -10 -10 -5 0 -10
5 -10 10 0 6 5 10 10 10 6 0 10 -4 10 -10z m50 -4 c0 -11 -19 -15 -25 -6 -3 5
1 10 9 10 9 0 16 -2 16 -4z m60 -37 c0 -12 -7 -19 -18 -19 -10 0 -25 -9 -35
-20 -9 -11 -25 -20 -34 -20 -16 1 -16 2 1 15 11 8 23 15 28 15 4 0 8 6 8 14 0
10 -7 12 -22 9 -33 -8 -13 10 25 23 37 13 47 10 47 -17z m1480 -12 c0 -5 -4
-5 -10 -2 -5 3 -10 14 -10 23 0 15 2 15 10 2 5 -8 10 -19 10 -23z m67 -9 c-3
-8 -6 -5 -6 6 -1 11 2 17 5 13 3 -3 4 -12 1 -19z m-1760 -35 c-3 -3 -11 -2
-17 2 -8 5 -7 11 2 22 12 15 13 14 16 -1 2 -10 1 -20 -1 -23z m1693 -35 c0
-10 -13 -10 -34 -2 -9 3 -16 15 -16 26 0 18 1 18 25 1 13 -10 25 -21 25 -25z
m147 -5 c-3 -10 -5 -4 -5 12 0 17 2 24 5 18 2 -7 2 -21 0 -30z m-227 -58 c0
-5 -5 -3 -10 5 -5 8 -10 20 -10 25 0 6 5 3 10 -5 5 -8 10 -19 10 -25z m-1770
6 c0 -12 -20 -25 -27 -18 -7 7 6 27 18 27 5 0 9 -4 9 -9z m620 -1 c0 -5 -2
-10 -4 -10 -3 0 -8 5 -11 10 -3 6 -1 10 4 10 6 0 11 -4 11 -10z m1187 -62 c-3
-7 -5 -2 -5 12 0 14 2 19 5 13 2 -7 2 -19 0 -25z m1338 22 c-3 -5 -10 -10 -16
-10 -5 0 -9 5 -9 10 0 6 7 10 16 10 8 0 12 -4 9 -10z m-1533 -117 c5 -7 5 -13
0 -17 -10 -6 -23 27 -21 54 1 8 3 6 6 -5 3 -11 9 -25 15 -32z m33 26 c10 -31
0 -33 -19 -4 -14 21 -14 25 -2 25 8 0 18 -9 21 -21z m59 -41 c-8 -28 -12 -33
-20 -25 -9 8 6 47 17 47 6 0 7 -10 3 -22z m-64 -19 c0 -11 -4 -18 -10 -14 -5
3 -7 12 -3 20 7 21 13 19 13 -6z m-1600 -28 c0 -6 -4 -13 -10 -16 -5 -3 -10 1
-10 9 0 9 5 16 10 16 6 0 10 -4 10 -9z m1415 -11 c3 -5 4 -10 1 -10 -2 0 -12
-3 -20 -6 -12 -5 -15 -2 -10 10 7 18 20 21 29 6z m105 -11 c0 -6 -4 -7 -10 -4
-5 3 -10 11 -10 16 0 6 5 7 10 4 6 -3 10 -11 10 -16z m147 -1 c-3 -8 -6 -5 -6
6 -1 11 2 17 5 13 3 -3 4 -12 1 -19z m-199 -25 c-10 -2 -18 -8 -18 -13 0 -19
-40 -21 -58 -4 -16 17 -16 18 0 11 10 -3 28 -2 40 3 13 5 30 8 38 8 10 0 9 -2
-2 -5z m-1502 -45 c-13 -18 -16 -19 -16 -5 0 9 5 17 10 17 6 0 10 8 11 18 0
10 3 12 6 5 2 -7 -3 -23 -11 -35z m1559 22 c3 -5 1 -10 -4 -10 -6 0 -11 5 -11
10 0 6 2 10 4 10 3 0 8 -4 11 -10z m-31 -26 c10 -26 6 -68 -8 -86 -12 -17 -14
-17 -29 0 -19 21 -19 61 1 85 19 21 28 22 36 1z m-137 -36 c-3 -8 -6 -5 -6 6
-1 11 2 17 5 13 3 -3 4 -12 1 -19z m58 3 c3 -6 -4 -9 -15 -8 -11 1 -20 5 -20
9 0 11 28 10 35 -1z m1585 -17 c0 -14 -3 -14 -15 -4 -8 7 -15 14 -15 16 0 2 7
4 15 4 8 0 15 -7 15 -16z m-1460 -45 c0 -6 -4 -7 -10 -4 -5 3 -10 11 -10 16 0
6 5 7 10 4 6 -3 10 -11 10 -16z m-347 -11 c10 2 27 -6 38 -19 22 -25 24 -36 7
-41 -6 -2 -12 -12 -14 -21 -1 -12 5 -17 19 -16 12 0 17 3 10 5 -8 4 -6 11 8
25 17 17 39 26 39 15 0 -2 3 -12 7 -22 5 -13 2 -16 -8 -12 -10 4 -14 -3 -15
-25 -1 -19 -11 -39 -30 -56 -16 -15 -38 -37 -48 -49 -18 -21 -18 -22 -2 -16
15 6 17 3 11 -14 -3 -12 -2 -22 2 -22 11 0 43 64 43 85 0 8 7 15 16 15 14 0
15 -7 10 -40 -8 -49 3 -51 27 -4 19 38 15 57 -8 47 -18 -6 -19 7 -4 41 7 14
16 23 22 19 5 -3 6 3 3 15 -4 12 -2 23 5 28 9 5 10 2 6 -9 -3 -10 -3 -17 1
-17 4 0 12 -10 18 -23 6 -12 21 -42 33 -65 13 -25 19 -51 16 -60 -6 -14 -10
-11 -20 13 -8 17 -16 38 -19 48 -3 9 -9 17 -14 17 -10 0 -4 -49 8 -65 4 -5 11
-28 15 -50 4 -22 12 -46 17 -53 8 -9 7 -11 -6 -6 -9 3 -19 17 -22 30 -4 16
-13 24 -27 24 -20 0 -20 -1 -2 -13 14 -11 15 -16 5 -22 -7 -4 -15 -2 -19 4 -5
8 -13 5 -26 -9 -15 -17 -16 -23 -5 -33 10 -10 12 -9 7 6 -13 35 18 16 45 -28
28 -47 50 -60 41 -25 -7 24 13 26 45 4 31 -22 30 -64 -2 -64 -13 0 -26 6 -29
13 -2 6 -8 9 -12 5 -4 -4 2 -17 14 -29 21 -23 29 -55 11 -44 -5 3 -10 13 -10
21 0 8 -9 14 -19 14 -13 0 -21 9 -26 31 -9 41 -31 32 -27 -12 2 -19 8 -39 12
-44 5 -6 2 -18 -5 -28 -9 -12 -14 -14 -17 -6 -2 7 -10 9 -16 5 -9 -5 -9 -13
-2 -26 19 -35 12 -50 -20 -46 -33 4 -59 30 -60 59 0 24 -20 22 -20 -3 0 -11 4
-20 10 -20 5 0 7 -7 4 -15 -4 -8 1 -17 10 -21 22 -8 21 -44 -1 -45 -17 -1 -17
-2 0 -6 19 -5 22 -18 7 -28 -21 -13 -39 15 -33 51 3 20 1 34 -5 34 -5 0 -13
-20 -17 -45 -4 -29 -10 -43 -17 -39 -7 5 -9 -2 -4 -22 l8 -29 -31 33 c-32 33
-67 46 -38 14 19 -21 24 -77 6 -67 -6 4 -8 13 -5 21 3 8 -1 17 -9 20 -8 4 -15
17 -15 30 0 13 -4 24 -10 24 -5 0 -14 10 -21 21 -11 21 -10 22 26 16 l37 -6
-23 19 c-12 11 -26 20 -31 20 -4 0 -8 7 -8 15 0 9 9 15 25 15 16 0 25 6 25 15
0 9 11 20 24 25 13 5 27 14 31 20 4 7 10 8 14 3 3 -4 22 -6 41 -2 l35 6 -32 2
c-18 0 -33 6 -33 11 0 6 -7 10 -15 10 -8 0 -15 5 -15 11 0 6 24 9 64 7 36 -1
68 1 72 5 4 4 -5 7 -20 7 -23 0 -27 4 -23 20 4 16 2 18 -13 10 -29 -15 -139
-9 -162 9 -19 16 -19 16 1 38 21 22 28 39 13 29 -4 -2 -8 4 -8 15 0 10 4 19 8
19 4 0 8 -4 8 -9 0 -10 30 -24 38 -17 2 3 -10 22 -27 43 -21 26 -27 39 -19 44
7 5 18 3 25 -3 8 -6 17 -7 21 -3 4 4 1 10 -6 12 -7 3 -19 18 -28 35 -9 17 -12
28 -7 25 5 -3 15 -2 23 3 11 7 12 13 2 36 -16 34 -10 40 20 20 28 -20 38 -20
38 -2 0 8 -11 18 -24 23 -20 7 -22 12 -15 32 6 15 14 21 24 17 10 -4 15 1 15
15 0 11 -4 18 -9 15 -5 -4 -7 4 -4 15 5 18 8 20 17 8 6 -8 19 -13 29 -11z m77
-8 c0 -5 -7 -7 -15 -4 -8 4 -15 8 -15 10 0 2 7 4 15 4 8 0 15 -4 15 -10z
m-938 -50 c-16 -30 -32 -48 -39 -45 -7 2 -13 0 -13 -5 0 -6 5 -10 11 -10 5 0
7 -5 3 -11 -4 -7 -9 -7 -13 -1 -3 5 -32 13 -64 16 -46 6 -58 11 -55 24 2 9 14
19 27 22 13 3 27 14 32 25 6 19 8 19 17 -5 l11 -25 7 23 c6 20 21 26 62 25 6
-1 12 3 12 8 0 5 7 9 14 9 11 0 8 -12 -12 -50z m1056 5 c20 -31 20 -34 3 -24
-23 15 -58 71 -39 64 7 -3 23 -21 36 -40z m114 28 c10 -9 18 -26 18 -37 -1
-19 -2 -19 -25 7 -37 42 -32 65 7 30z m-43 -71 c9 -3 11 0 6 9 -5 8 -4 10 0 6
5 -4 10 -25 10 -46 1 -27 -2 -35 -9 -27 -14 14 -36 78 -35 97 1 8 4 3 8 -10 4
-14 13 -27 20 -29z m1416 18 c3 -5 -3 -10 -14 -10 -12 0 -21 5 -21 10 0 6 6
10 14 10 8 0 18 -4 21 -10z m-1310 -40 c-4 -20 -2 -31 9 -37 18 -10 9 -28 -21
-37 -18 -6 -21 -4 -16 16 4 22 4 22 -10 5 -10 -12 -17 -14 -22 -8 -3 6 -1 11
4 11 6 0 10 3 10 8 -4 22 3 34 16 28 11 -4 15 2 15 25 0 19 4 28 11 24 6 -4 7
-19 4 -35z m-156 -9 c-15 -5 -22 6 -14 19 6 9 10 9 16 -1 5 -8 4 -15 -2 -18z
m1431 -1 c0 -4 -11 -11 -25 -14 -14 -4 -25 -11 -25 -16 0 -6 -6 -10 -14 -10
-17 0 -40 26 -33 37 7 10 97 13 97 3z m-2744 -55 c-10 -60 -34 -108 -53 -101
-8 3 -19 6 -23 6 -5 0 -14 10 -21 21 -9 18 -8 24 5 31 9 5 16 14 16 21 1 16
32 52 50 60 29 11 32 6 26 -38z m1351 -1 c-9 -9 -28 6 -21 18 4 6 10 6 17 -1
6 -6 8 -13 4 -17z m-761 1 c19 -15 18 -16 -10 -39 -21 -18 -26 -29 -21 -45 7
-23 -4 -28 -23 -9 -7 7 -12 8 -13 3 0 -6 -1 -29 -2 -52 -1 -24 -6 -43 -12 -44
-5 0 -15 -10 -22 -22 -7 -12 -12 -16 -13 -9 0 20 -18 14 -25 -9 -4 -12 -12
-18 -21 -15 -7 3 -16 1 -19 -5 -4 -5 -22 -7 -41 -3 -34 6 -34 6 -28 -27 5 -31
4 -32 -9 -16 -8 9 -20 17 -27 17 -9 0 -7 -6 5 -20 17 -19 17 -20 1 -20 -9 0
-15 -4 -12 -9 3 -5 -2 -15 -10 -22 -15 -12 -13 -14 17 -21 20 -4 36 -2 40 4 3
5 9 1 11 -10 4 -15 2 -19 -8 -15 -10 3 -14 -3 -14 -20 0 -14 -5 -29 -10 -32
-6 -4 -8 -16 -4 -27 4 -15 3 -18 -7 -13 -9 6 -11 3 -6 -9 4 -10 7 -23 7 -29 0
-7 6 -1 13 12 6 13 23 31 37 40 16 11 21 12 16 3 -5 -9 -3 -13 5 -11 31 4 47
-2 45 -17 -2 -26 22 -28 26 -3 2 12 9 24 16 27 7 2 10 -2 6 -12 -3 -9 -1 -16
5 -16 16 0 13 -16 -6 -36 -16 -16 -16 -16 4 -10 18 6 20 3 15 -21 -3 -16 -11
-36 -18 -46 -9 -14 -10 -27 -2 -48 17 -49 36 -29 30 31 -1 8 1 25 3 38 6 26
25 20 25 -8 0 -13 5 -17 15 -14 8 4 15 2 15 -4 0 -5 -7 -12 -15 -16 -8 -3 -15
-12 -15 -20 0 -10 6 -13 15 -10 11 5 15 -1 15 -19 0 -35 -37 -117 -52 -117 -9
0 -10 2 -1 8 15 9 29 82 15 82 -13 0 -24 -52 -24 -114 l0 -50 -14 34 c-8 19
-12 40 -10 47 3 7 1 13 -3 13 -5 0 -12 -7 -15 -16 -3 -8 -10 -13 -15 -9 -6 3
-8 12 -4 20 6 17 -12 21 -22 5 -6 -10 -75 56 -75 72 0 4 -7 5 -16 1 -14 -5
-16 -1 -12 20 4 21 -2 35 -26 61 -17 18 -49 53 -71 77 -22 25 -78 73 -125 109
-47 35 -91 70 -98 77 -7 7 -18 13 -23 13 -6 0 -21 12 -34 26 -16 17 -25 22
-25 13 0 -8 -11 0 -24 16 -13 17 -30 30 -38 30 -9 0 -13 12 -12 38 1 21 4 41
8 44 9 10 34 -16 40 -43 5 -19 11 -24 25 -19 11 3 22 1 26 -5 9 -15 25 -12 25
5 0 10 10 15 27 15 21 0 24 3 15 12 -21 21 -15 50 10 46 15 -2 26 4 33 18 10
19 13 20 30 8 15 -11 20 -11 27 -1 6 9 8 9 8 -1 0 -7 5 -10 11 -6 7 4 44 8 83
10 116 4 145 9 169 32 13 12 27 22 30 22 4 0 21 14 37 30 26 27 35 30 75 26
25 -2 45 0 45 5 0 5 -4 9 -10 9 -5 0 -10 7 -10 15 0 19 21 19 46 0z m984 -19
c0 -13 -7 -26 -15 -30 -8 -3 -15 -12 -15 -21 0 -20 -8 -19 -50 7 l-35 21 34
14 c18 8 40 12 47 9 8 -3 14 1 14 9 0 8 5 15 10 15 6 0 10 -11 10 -24z m90
-21 c7 -9 8 -15 2 -15 -5 0 -12 7 -16 15 -3 8 -4 15 -2 15 2 0 9 -7 16 -15z
m-1873 -17 c-3 -8 -6 -5 -6 6 -1 11 2 17 5 13 3 -3 4 -12 1 -19z m40 -10 c-3
-7 -5 -2 -5 12 0 14 2 19 5 13 2 -7 2 -19 0 -25z m783 2 c0 -5 -7 -7 -15 -4
-8 4 -15 8 -15 10 0 2 7 4 15 4 8 0 15 -4 15 -10z m-840 -14 c0 -8 -4 -18 -10
-21 -5 -3 -10 3 -10 14 0 12 5 21 10 21 6 0 10 -6 10 -14z m1601 -2 c9 -11 8
-14 -6 -14 -9 0 -19 -9 -22 -20 -5 -19 -6 -20 -19 -3 -22 29 -17 51 11 51 13
0 30 -7 36 -14z m204 -4 c3 -5 1 -10 -4 -10 -6 0 -11 5 -11 10 0 6 2 10 4 10
3 0 8 -4 11 -10z m-1835 -29 c0 -14 -18 -23 -31 -15 -8 4 -7 9 2 15 18 11 29
11 29 0z m2946 -28 c-11 -11 -19 6 -11 24 8 17 8 17 12 0 3 -10 2 -21 -1 -24z
m-1751 7 c3 -5 1 -10 -4 -10 -6 0 -11 5 -11 10 0 6 2 10 4 10 3 0 8 -4 11 -10z
m-1127 -12 c7 -7 12 -25 12 -41 0 -22 -4 -28 -15 -23 -8 3 -15 1 -15 -3 0 -5
6 -11 13 -14 6 -2 9 -8 5 -12 -14 -15 -33 21 -34 63 -2 43 10 54 34 30z m2734
-23 c22 -28 38 -32 38 -10 0 27 66 19 100 -12 22 -19 27 -29 18 -34 -9 -6 -8
-13 6 -28 25 -28 34 -26 47 5 11 32 19 27 28 -17 7 -37 31 -52 31 -20 0 18 6
21 45 21 38 0 45 3 45 20 0 11 5 20 10 20 6 0 10 -16 10 -35 0 -19 -5 -35 -10
-35 -6 0 -6 -7 1 -18 6 -10 21 -18 32 -18 17 1 23 -7 29 -42 5 -29 16 -50 33
-64 19 -15 23 -24 16 -31 -24 -24 -5 -117 24 -117 8 0 15 -9 15 -19 0 -24 65
-95 79 -87 5 4 12 2 16 -4 4 -6 -6 -10 -22 -10 l-28 -1 24 -17 c13 -9 33 -27
46 -39 12 -13 27 -23 33 -23 13 0 24 -44 16 -64 -9 -23 -81 -22 -86 1 -3 15
-4 15 -17 0 -12 -15 -11 -17 3 -17 9 0 16 -6 16 -14 0 -10 7 -12 23 -8 19 5
20 4 8 -11 -7 -9 -18 -14 -24 -10 -7 4 -8 -9 -4 -39 6 -46 -11 -95 -38 -111
-8 -4 -17 -24 -21 -43 -4 -20 -13 -38 -20 -41 -17 -6 -18 -35 -3 -50 12 -12 2
-83 -12 -83 -5 0 -9 -11 -9 -24 0 -13 -13 -40 -29 -60 -26 -33 -29 -34 -34
-15 -4 13 -12 20 -24 17 -26 -5 -22 -40 5 -54 13 -6 20 -13 15 -15 -8 -4 -65
-86 -186 -268 -38 -57 -73 -109 -78 -115 -5 -6 -35 -47 -67 -91 -232 -317
-334 -435 -410 -472 -31 -15 -36 -15 -68 0 -19 9 -34 21 -34 26 0 5 -35 17
-77 26 -43 10 -82 24 -86 31 -5 9 -18 12 -35 8 -23 -4 -24 -3 -9 6 26 17 21
38 -9 38 -15 0 -31 7 -36 16 -5 10 -22 16 -42 16 -26 0 -35 5 -39 21 -3 12
-10 18 -15 15 -5 -3 -15 1 -22 9 -7 8 -19 15 -26 15 -8 0 -14 6 -14 14 0 7
-15 23 -32 36 -18 12 -44 37 -58 55 -14 19 -35 38 -47 44 -13 6 -23 17 -23 26
0 8 -11 25 -25 37 -14 12 -40 45 -57 73 -17 27 -40 59 -50 71 -10 11 -20 30
-23 42 -2 11 -13 30 -24 41 -12 12 -21 27 -21 35 0 7 -8 24 -19 37 -20 26 -32
69 -33 121 0 18 -4 38 -8 43 -18 25 -17 58 2 91 11 19 17 34 13 34 -4 0 -2 6
4 14 8 10 10 46 5 120 -5 90 -4 110 11 132 11 18 23 24 36 21 10 -3 22 -1 25
4 3 5 10 7 15 4 14 -9 49 5 49 19 0 8 20 16 53 20 88 12 107 12 107 4 0 -4 11
-10 24 -14 26 -6 77 16 114 49 12 11 22 17 22 13 0 -5 15 3 34 18 19 14 41 24
48 21 7 -3 18 5 23 17 6 12 20 25 33 28 13 3 23 10 22 15 -1 6 7 12 17 13 29
6 40 22 14 22 -31 0 -18 16 19 24 22 4 29 10 24 18 -4 7 -4 10 1 6 4 -4 15 -3
24 2 10 5 23 5 32 -1 11 -7 11 -9 -3 -9 -22 0 -22 0 -3 -37 14 -29 17 -30 65
-25 33 3 50 1 50 -7 0 -6 -13 -11 -30 -11 -28 0 -30 -2 -30 -40 0 -22 -4 -40
-10 -40 -5 0 -10 18 -10 40 0 33 -3 40 -20 40 -17 0 -20 -7 -20 -40 0 -35 -3
-40 -22 -40 -19 -1 -20 -2 -7 -10 9 -5 22 -23 29 -40 7 -16 19 -30 26 -30 8 0
14 -4 14 -10 0 -5 18 -10 40 -10 45 0 52 -15 20 -43 -14 -12 -20 -29 -20 -57
0 -33 -3 -40 -20 -40 -11 0 -20 -4 -20 -10 0 -13 13 -13 45 2 18 8 29 9 33 1
11 -17 100 -23 106 -7 3 8 17 14 31 14 18 0 25 5 25 20 0 17 -7 20 -40 20 -33
0 -40 -3 -40 -20 0 -13 -7 -20 -20 -20 -17 0 -20 7 -20 40 0 33 -3 40 -19 40
-17 0 -15 5 13 35 38 40 43 42 48 18 3 -15 5 -15 22 3 20 19 19 19 -40 24
l-59 5 33 14 c17 7 32 17 32 20 0 4 -16 15 -35 24 l-34 16 33 36 c18 19 36 35
40 35 3 0 6 -16 6 -35 0 -22 5 -35 13 -35 10 0 10 17 2 83 -7 59 -11 72 -13
45 -3 -38 -18 -50 -28 -24 -3 8 -16 17 -30 20 -34 9 -30 26 15 70 38 37 39 38
43 15 l3 -24 25 25 25 25 -45 7 c-115 18 -125 21 -128 52 -3 23 -7 27 -27 24
-16 -4 -22 -1 -18 9 3 7 18 13 34 13 24 0 29 4 29 26 0 37 25 59 53 47 29 -13
47 -6 47 18 0 16 -4 17 -25 9 -28 -10 -37 -1 -32 32 4 25 47 67 62 62 17 -7
31 16 16 26 -9 5 -5 15 13 36 l25 29 1 -31 c0 -18 6 -34 14 -37 20 -8 26 2 26
44 0 29 -4 38 -19 41 -18 3 -18 5 -5 23 13 17 16 18 25 5 8 -11 12 -12 16 -2
7 17 43 15 43 -3 0 -21 12 -19 33 5 23 27 21 46 -5 64 -17 12 -24 13 -29 4 -5
-7 -11 -9 -14 -6 -13 12 4 25 50 38 25 7 45 17 45 21 0 17 22 9 42 -16z
m-2782 -26 c0 -16 -4 -29 -10 -29 -5 0 -10 16 -10 36 0 21 4 33 10 29 6 -3 10
-19 10 -36z m30 -87 c0 -15 -2 -15 -10 -2 -13 20 -13 33 0 25 6 -3 10 -14 10
-23z m40 -2 c0 -5 -4 -10 -10 -10 -5 0 -10 5 -10 10 0 6 5 10 10 10 6 0 10 -4
10 -10z m32 -7 c3 -10 3 -23 1 -30 -7 -20 -31 8 -25 29 6 23 18 23 24 1z
m1093 -13 c-3 -5 -12 -10 -18 -10 -7 0 -6 4 3 10 19 12 23 12 15 0z m55 0 c0
-5 -4 -10 -9 -10 -6 0 -13 5 -16 10 -3 6 1 10 9 10 9 0 16 -4 16 -10z m275
-30 c3 -5 1 -10 -4 -10 -6 0 -11 5 -11 10 0 6 2 10 4 10 3 0 8 -4 11 -10z
m972 -32 c-3 -8 -6 -5 -6 6 -1 11 2 17 5 13 3 -3 4 -12 1 -19z m-1680 -85 c-3
-10 -5 -4 -5 12 0 17 2 24 5 18 2 -7 2 -21 0 -30z m647 -11 c3 -5 -1 -9 -9 -9
-8 0 -12 4 -9 9 3 4 7 8 9 8 2 0 6 -4 9 -8z m-627 -24 c-3 -8 -6 -5 -6 6 -1
11 2 17 5 13 3 -3 4 -12 1 -19z m311 10 c-2 -6 -11 -13 -19 -16 -12 -3 -12 -2
0 6 11 8 10 11 -5 15 -16 4 -15 5 4 6 14 1 22 -4 20 -11z m-378 -42 c0 -8 -4
-17 -9 -20 -10 -7 -23 19 -14 28 11 11 23 6 23 -8z m430 -48 c0 -38 -5 -34
-13 10 -4 21 -3 31 3 27 6 -3 10 -20 10 -37z m-40 1 c0 -11 -4 -18 -10 -14 -5
3 -7 12 -3 20 7 21 13 19 13 -6z m-360 -11 c0 -19 -2 -20 -10 -8 -13 19 -13
30 0 30 6 0 10 -10 10 -22z m60 -58 c0 -5 -4 -10 -10 -10 -5 0 -10 5 -10 10 0
6 5 10 10 10 6 0 10 -4 10 -10z m27 -22 c-3 -7 -5 -2 -5 12 0 14 2 19 5 13 2
-7 2 -19 0 -25z m-60 -20 c-3 -8 -6 -5 -6 6 -1 11 2 17 5 13 3 -3 4 -12 1 -19z
m1543 -18 c0 -5 -12 -10 -27 -11 -16 0 -22 -3 -15 -6 22 -9 13 -33 -13 -33
-31 0 -32 17 -3 41 23 20 58 26 58 9z m-1553 -52 c-3 -8 -6 -5 -6 6 -1 11 2
17 5 13 3 -3 4 -12 1 -19z m-234 -8 c3 -11 1 -18 -4 -14 -5 3 -9 12 -9 20 0
20 7 17 13 -6z m237 -36 c0 -12 -2 -12 -14 -2 -8 7 -12 16 -9 21 7 11 23 -2
23 -19z m-20 -19 c0 -8 -7 -15 -15 -15 -16 0 -20 12 -8 23 11 12 23 8 23 -8z
m-207 -42 c4 -19 2 -33 -3 -33 -6 0 -10 11 -10 24 0 13 -3 33 -6 43 -5 12 -4
15 3 8 6 -5 13 -25 16 -42z m234 -5 c-3 -7 -5 -2 -5 12 0 14 2 19 5 13 2 -7 2
-19 0 -25z m-20 0 c-3 -8 -6 -5 -6 6 -1 11 2 17 5 13 3 -3 4 -12 1 -19z m-198
-70 c10 -30 9 -31 -4 -14 -8 11 -15 26 -15 33 0 22 8 14 19 -19z m1811 -78 c0
-17 -7 -20 -40 -20 -33 0 -40 3 -40 20 0 17 7 20 40 20 33 0 40 -3 40 -20z
m-1672 -45 c-3 -3 -9 2 -12 12 -6 14 -5 15 5 6 7 -7 10 -15 7 -18z m3672
-1506 c15 -50 18 -54 48 -57 39 -4 39 -10 6 -59 -24 -35 -25 -44 -19 -105 7
-75 -3 -87 -32 -38 -23 40 -48 38 -87 -7 -21 -23 -35 -32 -40 -25 -6 11 4 40
37 111 11 21 8 27 -31 61 -23 21 -42 43 -42 49 0 7 21 11 54 11 52 0 54 1 60
31 3 17 6 45 6 61 0 47 23 28 40 -33z m-303 -474 c31 -8 96 -15 143 -15 113
-1 223 -16 262 -36 92 -48 233 -230 284 -369 7 -18 8 -17 12 7 3 24 9 28 50
33 89 12 103 17 136 51 39 40 52 42 62 12 8 -27 8 -173 -1 -239 -7 -48 -62
-153 -80 -151 -5 1 -13 21 -17 44 -11 71 -31 107 -73 128 -22 11 -41 20 -42
20 -2 0 3 -13 12 -30 19 -36 19 -56 1 -63 -23 -9 -42 -55 -55 -132 -17 -95
-58 -218 -83 -251 -19 -23 -26 -26 -65 -21 -25 2 -49 9 -54 14 -6 6 0 32 15
69 29 73 51 224 42 296 -12 99 -10 93 -47 90 -19 -2 -36 -6 -39 -9 -3 -2 -5
-109 -5 -236 l0 -231 30 -8 c17 -4 82 -8 146 -9 115 -1 145 5 177 38 22 21 39
-1 53 -65 15 -75 7 -207 -15 -252 -39 -76 -86 -104 -86 -52 0 48 -55 147 -92
165 -32 15 -188 32 -188 20 0 -4 12 -27 28 -52 51 -85 62 -106 108 -201 69
-143 119 -213 178 -248 71 -43 122 -50 169 -22 l37 22 0 -32 c0 -39 -55 -147
-89 -175 -48 -39 -96 -64 -123 -65 -62 0 -139 110 -271 390 l-26 55 -1 -88 c0
-108 16 -216 41 -274 30 -70 27 -75 -33 -67 -29 4 -69 15 -90 25 -30 16 -38
16 -47 5 -30 -35 -214 -26 -286 14 -33 19 -32 11 -20 168 5 51 11 95 15 97 5
3 34 -3 66 -13 56 -17 59 -19 65 -57 9 -52 44 -151 64 -182 10 -15 22 -22 32
-19 8 3 23 6 34 6 23 0 25 16 4 36 -17 18 -20 80 -5 119 5 14 13 58 17 97 l6
71 -29 -7 c-83 -19 -159 -18 -224 4 -99 33 -165 88 -284 235 -82 101 -131 189
-176 314 -39 112 -47 167 -27 189 8 9 25 53 37 97 24 86 107 270 143 316 38
50 120 131 157 155 34 22 91 44 155 59 31 7 155 8 162 1 2 -2 9 -33 15 -68 10
-60 13 -66 42 -76 18 -7 60 -12 94 -12 l62 0 -12 25 c-6 14 -15 25 -20 25 -4
0 -8 7 -8 15 0 23 -71 96 -107 112 -47 19 -176 16 -257 -6 -38 -11 -75 -17
-81 -14 -7 2 -20 30 -30 61 -9 31 -23 77 -31 101 -22 71 -25 69 63 46z m-2913
-551 c9 -3 16 -10 16 -15 0 -11 91 -203 175 -370 60 -119 64 -146 25 -156 -11
-3 -20 -9 -20 -14 0 -16 21 -20 57 -10 28 8 44 7 70 -6 33 -15 37 -23 47 -93
2 -19 7 -42 11 -51 4 -10 -4 -28 -20 -48 -28 -33 -68 -41 -105 -21 -11 6 -54
13 -95 15 -42 3 -85 10 -96 16 -12 6 -32 8 -47 3 -39 -11 -123 -4 -156 13 -23
12 -33 13 -52 3 -29 -16 -155 -5 -203 17 -26 13 -37 14 -51 5 -31 -19 -139 5
-172 39 -63 62 -18 171 73 175 24 1 53 2 64 3 16 1 14 5 -14 29 -50 41 -39 70
43 115 35 20 74 37 87 39 21 3 24 8 21 38 -2 25 2 41 15 53 29 26 112 67 135
67 17 0 20 5 15 28 -8 44 6 64 69 98 61 33 81 38 108 28z"/>
<path d="M4760 9191 c0 -17 18 -21 24 -6 3 9 0 15 -9 15 -8 0 -15 -4 -15 -9z"/>
<path d="M5360 9000 c0 -37 2 -40 28 -40 l27 0 -25 20 -25 20 25 20 25 20 -27
0 c-26 0 -28 -3 -28 -40z"/>
<path d="M5100 8983 c1 -20 30 -45 45 -39 13 4 14 10 5 26 -10 19 -50 29 -50
13z"/>
<path d="M5396 8947 c-17 -12 -17 -14 -2 -20 21 -8 46 2 46 19 0 18 -21 18
-44 1z"/>
<path d="M5395 8889 c-10 -15 1 -23 20 -15 9 3 13 10 10 16 -8 13 -22 13 -30
-1z"/>
<path d="M5095 8870 c4 -6 11 -8 16 -5 14 9 11 15 -7 15 -8 0 -12 -5 -9 -10z"/>
<path d="M5488 8873 c6 -2 18 -2 25 0 6 3 1 5 -13 5 -14 0 -19 -2 -12 -5z"/>
<path d="M4764 8823 c-28 -30 -25 -38 11 -29 18 5 25 13 25 31 0 32 -5 31 -36
-2z"/>
<path d="M4960 8841 c0 -10 36 -21 44 -14 3 3 3 10 0 14 -7 12 -44 12 -44 0z"/>
<path d="M5536 8812 c-2 -4 11 -12 30 -18 38 -12 43 -8 17 12 -20 15 -40 18
-47 6z"/>
<path d="M4545 8781 c-3 -5 -1 -12 5 -16 5 -3 10 1 10 9 0 18 -6 21 -15 7z"/>
<path d="M5477 8783 c-12 -11 -8 -23 8 -23 8 0 15 7 15 15 0 16 -12 20 -23 8z"/>
<path d="M4675 8760 c3 -5 8 -10 11 -10 2 0 4 5 4 10 0 6 -5 10 -11 10 -5 0
-7 -4 -4 -10z"/>
<path d="M5360 8759 c0 -16 30 -43 38 -34 4 4 1 10 -5 12 -7 3 -13 11 -13 19
0 8 -4 14 -10 14 -5 0 -10 -5 -10 -11z"/>
<path d="M5116 8735 c-3 -9 0 -15 9 -15 9 0 12 6 9 15 -4 8 -7 15 -9 15 -2 0
-5 -7 -9 -15z"/>
<path d="M4840 8730 c-12 -8 -9 -10 13 -10 15 0 27 5 27 10 0 13 -20 13 -40 0z"/>
<path d="M5460 8730 c0 -6 7 -10 15 -10 8 0 15 2 15 4 0 2 -7 6 -15 10 -8 3
-15 1 -15 -4z"/>
<path d="M4830 8700 c0 -5 5 -10 10 -10 6 0 10 5 10 10 0 6 -4 10 -10 10 -5 0
-10 -4 -10 -10z"/>
<path d="M5096 8696 c-14 -10 -13 -14 4 -36 l19 -25 22 21 c12 12 19 26 15 32
-10 16 -44 21 -60 8z"/>
<path d="M4275 8690 c-3 -5 3 -10 14 -10 11 0 23 5 26 10 3 6 -3 10 -14 10
-11 0 -23 -4 -26 -10z"/>
<path d="M4920 8685 c0 -8 9 -19 20 -25 15 -8 20 -8 20 3 0 14 -19 37 -32 37
-4 0 -8 -7 -8 -15z"/>
<path d="M5214 8685 c24 -18 39 -20 34 -2 -3 6 -15 13 -29 15 -23 2 -23 2 -5
-13z"/>
<path d="M4866 8681 c-3 -5 1 -14 8 -20 16 -13 32 2 21 19 -8 12 -22 13 -29 1z"/>
<path d="M4177 8664 c-13 -13 -7 -24 14 -24 11 0 19 5 17 12 -5 14 -22 21 -31
12z"/>
<path d="M5401 8649 c-17 -7 -21 -13 -14 -20 11 -11 53 8 53 23 0 10 -9 9 -39
-3z"/>
<path d="M5056 8593 c-12 -12 -6 -33 9 -33 8 0 15 6 15 14 0 17 -14 28 -24 19z"/>
<path d="M5323 8568 c2 -7 10 -13 17 -13 7 0 15 6 18 13 2 7 -5 12 -18 12 -13
0 -20 -5 -17 -12z"/>
<path d="M5264 8547 c-6 -15 23 -57 39 -57 5 0 4 7 -3 15 -6 8 -9 18 -6 23 3
6 -1 15 -9 22 -12 10 -16 9 -21 -3z"/>
<path d="M4800 8529 c0 -11 4 -18 10 -14 5 3 7 12 3 20 -7 21 -13 19 -13 -6z"/>
<path d="M5340 8520 c0 -5 5 -10 10 -10 6 0 10 5 10 10 0 6 -4 10 -10 10 -5 0
-10 -4 -10 -10z"/>
<path d="M3848 8403 c7 -3 16 -2 19 1 4 3 -2 6 -13 5 -11 0 -14 -3 -6 -6z"/>
<path d="M5346 8293 c-4 -9 -2 -21 4 -27 7 -7 10 -2 10 17 0 31 -5 34 -14 10z"/>
<path d="M5070 8290 c0 -5 5 -10 10 -10 6 0 10 5 10 10 0 6 -4 10 -10 10 -5 0
-10 -4 -10 -10z"/>
<path d="M5251 8251 c-16 -10 -6 -31 15 -31 8 0 14 9 14 20 0 22 -7 25 -29 11z"/>
<path d="M5240 8166 c0 -10 -7 -12 -22 -8 -20 5 -21 2 -15 -34 4 -21 7 -47 7
-56 0 -10 6 -18 13 -18 7 0 29 -16 49 -35 20 -20 39 -31 43 -26 3 6 -3 19 -14
30 -11 11 -16 23 -11 26 6 4 10 15 10 26 0 16 5 19 20 14 15 -5 18 -3 14 9 -3
8 -12 17 -20 20 -8 3 -14 13 -14 23 0 15 -2 16 -10 3 -7 -11 -11 -9 -19 13
-11 28 -31 37 -31 13z"/>
<path d="M3970 8116 c0 -19 27 -28 33 -11 7 15 -1 25 -20 25 -7 0 -13 -6 -13
-14z"/>
<path d="M5327 8034 c9 -15 19 -21 21 -15 4 13 -16 41 -29 41 -5 0 -2 -12 8
-26z"/>
<path d="M5370 8021 c0 -6 5 -13 10 -16 6 -3 10 1 10 9 0 9 -4 16 -10 16 -5 0
-10 -4 -10 -9z"/>
<path d="M5250 7983 c1 -23 46 -78 54 -65 3 5 -4 21 -15 36 -11 14 -17 30 -14
36 3 5 -1 10 -9 10 -9 0 -16 -8 -16 -17z"/>
<path d="M5357 7980 c3 -11 7 -20 9 -20 2 0 4 9 4 20 0 11 -4 20 -9 20 -5 0
-7 -9 -4 -20z"/>
<path d="M5400 7980 c0 -5 5 -10 10 -10 6 0 10 5 10 10 0 6 -4 10 -10 10 -5 0
-10 -4 -10 -10z"/>
<path d="M4920 7955 c0 -15 4 -24 10 -20 6 3 10 12 10 20 0 8 -4 17 -10 20 -6
4 -10 -5 -10 -20z"/>
<path d="M5132 7938 c6 -18 28 -21 28 -4 0 9 -7 16 -16 16 -9 0 -14 -5 -12
-12z"/>
<path d="M5346 7935 c4 -8 8 -15 10 -15 2 0 4 7 4 15 0 8 -4 15 -10 15 -5 0
-7 -7 -4 -15z"/>
<path d="M5370 7930 c0 -5 7 -10 15 -10 8 0 15 5 15 10 0 6 -7 10 -15 10 -8 0
-15 -4 -15 -10z"/>
<path d="M4860 7900 c-13 -8 -12 -10 3 -10 9 0 17 -4 17 -10 0 -5 -4 -10 -10
-10 -5 0 -10 -8 -10 -18 0 -14 8 -19 31 -20 39 -1 55 -14 64 -55 l8 -32 4 27
c3 21 9 27 26 25 31 -3 28 26 -3 33 -18 4 -26 14 -30 35 -3 17 -12 31 -20 31
-8 1 -26 4 -40 8 -14 3 -32 2 -40 -4z"/>
<path d="M5340 7903 c0 -4 4 -24 10 -42 13 -47 5 -50 -19 -10 -13 21 -21 28
-21 17 0 -29 19 -68 34 -68 7 0 17 -10 21 -22 6 -21 8 -21 12 -4 3 10 -1 22
-8 27 -11 6 -11 11 -2 20 10 10 17 9 33 -6 19 -18 20 -18 20 3 0 19 -11 28
-23 20 -9 -7 -37 26 -37 43 0 10 -4 21 -10 24 -5 3 -10 3 -10 -2z"/>
<path d="M5435 7858 c1 -13 6 -22 11 -20 13 3 11 35 -2 39 -6 2 -10 -7 -9 -19z"/>
<path d="M5210 7856 c0 -9 5 -16 10 -16 6 0 10 4 10 9 0 6 -4 13 -10 16 -5 3
-10 -1 -10 -9z"/>
<path d="M5220 7772 c0 -5 7 -16 16 -23 14 -12 16 -11 13 5 -4 20 -29 35 -29
18z"/>
<path d="M5034 7709 c-3 -6 -1 -16 5 -22 8 -8 11 -5 11 11 0 24 -5 28 -16 11z"/>
<path d="M5210 7696 c0 -8 6 -17 13 -19 7 -3 5 -6 -5 -6 -10 -1 -18 -8 -18
-16 0 -19 11 -19 34 -2 15 11 17 17 7 35 -13 25 -31 29 -31 8z"/>
<path d="M5280 7700 c0 -5 4 -10 9 -10 6 0 13 5 16 10 3 6 -1 10 -9 10 -9 0
-16 -4 -16 -10z"/>
<path d="M5168 7683 c7 -3 16 -2 19 1 4 3 -2 6 -13 5 -11 0 -14 -3 -6 -6z"/>
<path d="M5026 7642 c-8 -14 20 -34 41 -29 17 4 16 5 -2 12 -11 5 -23 13 -26
18 -4 5 -9 5 -13 -1z"/>
<path d="M5220 7620 c0 -5 9 -10 20 -10 11 0 20 5 20 10 0 6 -9 10 -20 10 -11
0 -20 -4 -20 -10z"/>
<path d="M5290 7610 c0 -5 5 -10 11 -10 5 0 7 5 4 10 -3 6 -8 10 -11 10 -2 0
-4 -4 -4 -10z"/>
<path d="M5010 7588 c0 -24 11 -48 21 -48 13 0 10 23 -6 44 -12 16 -15 17 -15
4z"/>
<path d="M5120 7479 c0 -5 5 -7 10 -4 6 3 10 8 10 11 0 2 -4 4 -10 4 -5 0 -10
-5 -10 -11z"/>
<path d="M4570 7471 c0 -6 5 -13 10 -16 6 -3 10 1 10 9 0 9 -4 16 -10 16 -5 0
-10 -4 -10 -9z"/>
<path d="M5055 7434 c9 -9 19 -13 23 -10 3 4 0 11 -8 16 -24 15 -33 11 -15 -6z"/>
<path d="M4960 7339 c0 -5 5 -7 10 -4 6 3 10 8 10 11 0 2 -4 4 -10 4 -5 0 -10
-5 -10 -11z"/>
<path d="M6088 8553 c7 -3 16 -2 19 1 4 3 -2 6 -13 5 -11 0 -14 -3 -6 -6z"/>
<path d="M4760 6895 c0 -8 -5 -15 -12 -15 -6 0 -9 -2 -6 -5 3 -3 13 -3 22 1
17 7 22 34 6 34 -5 0 -10 -7 -10 -15z"/>
<path d="M4805 6480 c3 -5 8 -10 11 -10 2 0 4 5 4 10 0 6 -5 10 -11 10 -5 0
-7 -4 -4 -10z"/>
<path d="M4610 6476 c0 -9 40 -13 46 -5 3 5 -6 9 -20 9 -14 0 -26 -2 -26 -4z"/>
<path d="M4680 6465 c0 -8 5 -15 10 -15 6 0 10 7 10 15 0 8 -4 15 -10 15 -5 0
-10 -7 -10 -15z"/>
<path d="M3940 6330 c0 -5 5 -10 10 -10 6 0 10 5 10 10 0 6 -4 10 -10 10 -5 0
-10 -4 -10 -10z"/>
<path d="M4020 6150 c0 -5 5 -10 10 -10 6 0 10 5 10 10 0 6 -4 10 -10 10 -5 0
-10 -4 -10 -10z"/>
<path d="M4080 6140 c0 -11 2 -20 4 -20 2 0 6 9 9 20 3 11 1 20 -4 20 -5 0 -9
-9 -9 -20z"/>
<path d="M3447 6714 c-4 -4 -7 -14 -7 -23 0 -11 3 -12 11 -4 6 6 10 16 7 23
-2 6 -7 8 -11 4z"/>
<path d="M6400 6544 c0 -14 3 -14 15 -4 8 7 15 14 15 16 0 2 -7 4 -15 4 -8 0
-15 -7 -15 -16z"/>
<path d="M6480 6550 c0 -5 5 -10 11 -10 5 0 7 5 4 10 -3 6 -8 10 -11 10 -2 0
-4 -4 -4 -10z"/>
<path d="M6080 6529 c0 -12 5 -19 12 -17 18 6 20 25 3 31 -10 5 -15 0 -15 -14z"/>
<path d="M6560 6469 c0 -5 5 -7 10 -4 6 3 10 8 10 11 0 2 -4 4 -10 4 -5 0 -10
-5 -10 -11z"/>
<path d="M5901 6416 c-9 -10 -8 -16 4 -26 13 -11 15 -8 15 14 0 30 -3 32 -19
12z"/>
<path d="M6619 6423 c0 -5 -3 -20 -5 -34 -3 -18 1 -29 11 -33 12 -4 15 3 15
34 0 22 -4 40 -10 40 -5 0 -10 -3 -11 -7z"/>
<path d="M6610 6316 c0 -2 7 -9 15 -16 12 -10 15 -10 15 4 0 9 -7 16 -15 16
-8 0 -15 -2 -15 -4z"/>
<path d="M5840 6286 c0 -13 -6 -26 -12 -28 -9 -3 -8 -10 5 -23 15 -15 23 -16
43 -6 35 16 44 14 44 -9 0 -11 5 -20 10 -20 18 0 10 39 -9 45 -10 3 -29 19
-41 35 -28 36 -40 38 -40 6z"/>
<path d="M6637 6220 c-4 -17 -2 -18 14 -9 22 11 25 29 5 29 -7 0 -16 -9 -19
-20z"/>
<path d="M6640 6153 c0 -5 11 -13 24 -19 23 -11 24 -10 13 7 -12 19 -37 26
-37 12z"/>
<path d="M6560 6098 c0 -9 -8 -19 -17 -21 -17 -4 -17 -5 0 -6 12 -1 17 -10 17
-31 0 -22 -5 -30 -17 -31 -15 0 -15 -2 2 -9 19 -8 19 -9 -3 -9 -12 -1 -25 -7
-28 -15 -3 -8 -12 -12 -19 -10 -15 6 -15 -50 0 -65 13 -13 85 18 85 36 0 7 9
13 20 13 15 0 20 7 20 26 0 22 -3 25 -22 21 -22 -6 -23 -4 -19 44 2 29 -2 56
-8 62 -8 8 -11 7 -11 -5z"/>
<path d="M6490 5990 c0 -5 5 -10 10 -10 6 0 10 5 10 10 0 6 -4 10 -10 10 -5 0
-10 -4 -10 -10z"/>
<path d="M5020 5770 c-12 -8 -10 -10 8 -10 13 0 20 4 17 10 -7 12 -6 12 -25 0z"/>
<path d="M6560 5720 c0 -5 7 -10 15 -10 8 0 15 5 15 10 0 6 -7 10 -15 10 -8 0
-15 -4 -15 -10z"/>
<path d="M5730 5630 c-22 -22 -23 -25 -7 -28 9 -2 17 -12 17 -23 0 -10 5 -19
10 -19 6 0 10 -7 10 -15 0 -22 9 -18 45 19 l32 34 -38 12 c-21 7 -39 20 -41
29 -3 13 -8 11 -28 -9z"/>
<path d="M5675 5552 c3 -7 5 -23 5 -33 0 -16 6 -20 28 -17 21 2 28 9 30 29 3
24 -1 27 -33 31 -27 3 -34 1 -30 -10z"/>
<path d="M5805 5409 c-10 -15 0 -21 30 -21 14 0 28 2 31 5 11 11 -7 27 -31 27
-13 0 -27 -5 -30 -11z"/>
<path d="M7588 3413 c6 -2 18 -2 25 0 6 3 1 5 -13 5 -14 0 -19 -2 -12 -5z"/>
<path d="M7819 3333 c-15 -86 -36 -103 -54 -46 -14 43 -46 78 -56 61 -22 -39
-31 -461 -11 -479 4 -3 32 -13 62 -21 30 -9 62 -19 70 -22 13 -6 15 15 16 156
0 90 1 213 3 273 1 61 -1 121 -6 133 -8 20 -12 10 -24 -55z"/>
<path d="M7492 3367 c-164 -125 -203 -445 -83 -692 63 -130 167 -235 265 -265
46 -15 129 -7 161 14 28 19 35 12 35 -32 0 -20 3 -33 6 -30 3 3 6 59 7 123 l2
117 -35 28 c-39 31 -103 60 -131 60 -22 0 -24 -21 -10 -96 5 -27 11 -74 13
-104 l3 -55 -30 3 c-16 2 -51 13 -76 24 l-46 19 -14 122 c-9 81 -14 236 -14
460 0 185 -2 337 -5 337 -3 0 -24 -15 -48 -33z"/>
<path d="M8051 3354 c0 -11 3 -14 6 -6 3 7 2 16 -1 19 -3 4 -6 -2 -5 -13z"/>
<path d="M7920 2537 c0 -9 12 -36 26 -59 14 -22 34 -59 45 -82 14 -30 17 -34
12 -13 -5 28 -51 126 -72 157 -9 13 -11 13 -11 -3z"/>
<path d="M4188 2778 c21 -23 26 -24 68 -15 55 13 40 26 -39 34 l-52 5 23 -24z"/>
<path d="M4472 2768 c-21 -21 -15 -41 11 -33 12 4 38 10 57 14 l35 8 -28 11
c-36 15 -60 15 -75 0z"/>
<path d="M4663 2744 c-8 -22 -3 -24 61 -17 63 6 58 17 -12 26 -32 4 -45 2 -49
-9z"/>
<path d="M4064 2695 c-9 -23 3 -45 25 -45 25 0 34 14 26 40 -7 23 -43 27 -51
5z"/>
<path d="M4264 2675 c-7 -17 12 -45 31 -45 18 0 27 30 14 46 -15 18 -38 18
-45 -1z"/>
<path d="M4527 2663 c-14 -13 -7 -43 13 -53 15 -8 21 -6 30 11 17 30 -20 66
-43 42z"/>
<path d="M4713 2634 c-3 -8 2 -23 11 -32 15 -15 17 -15 32 0 21 21 11 48 -16
48 -11 0 -23 -7 -27 -16z"/>
<path d="M6383 11313 c-15 -38 53 -182 85 -184 14 0 13 -2 -3 -10 -15 -7 -13
-8 12 -3 17 3 42 0 54 -7 17 -9 24 -9 27 0 2 7 29 11 68 11 61 0 64 1 54 19
-5 11 -10 29 -10 40 0 12 -7 21 -15 21 -8 0 -15 6 -15 13 0 13 -65 47 -88 47
-7 0 -12 3 -12 8 -2 33 -146 74 -157 45z"/>
<path d="M9562 11031 l-32 -73 32 -41 33 -41 3 57 c2 31 2 83 0 114 l-3 57
-33 -73z"/>
<path d="M7520 10675 c0 -8 -4 -15 -9 -15 -5 0 -23 -13 -39 -29 l-31 -28 25
-12 c14 -6 31 -11 39 -11 8 0 15 -4 15 -10 0 -5 9 -10 20 -10 17 0 20 7 20 40
0 35 -3 40 -22 40 -22 1 -22 1 -4 15 10 7 15 18 11 24 -9 16 -25 13 -25 -4z"/>
<path d="M9576 10603 c-3 -3 -6 -16 -6 -28 0 -12 -11 -32 -25 -45 -14 -13 -25
-28 -25 -34 0 -6 -16 -31 -35 -55 -20 -25 -38 -56 -42 -70 -3 -14 -17 -34 -30
-44 -13 -11 -20 -23 -16 -30 8 -13 10 -19 12 -42 0 -8 7 -15 14 -15 6 0 23
-17 37 -38 14 -20 33 -44 42 -53 14 -13 18 -32 18 -83 0 -37 -4 -66 -10 -66
-15 0 -12 -28 6 -55 15 -23 15 -25 0 -25 -9 0 -16 -4 -16 -10 0 -5 5 -10 10
-10 6 0 10 -13 10 -30 0 -28 2 -30 40 -30 l40 0 0 379 c0 209 -4 382 -9 385
-4 3 -11 3 -15 -1z"/>
<path d="M3280 10230 c0 -5 5 -10 10 -10 6 0 10 -7 10 -15 0 -8 5 -15 10 -15
13 0 12 11 -4 33 -15 19 -26 22 -26 7z"/>
<path d="M3220 10150 c0 -5 5 -10 10 -10 6 0 10 5 10 10 0 6 -4 10 -10 10 -5
0 -10 -4 -10 -10z"/>
<path d="M4000 10104 c0 -8 5 -12 10 -9 6 4 8 11 5 16 -9 14 -15 11 -15 -7z"/>
<path d="M3980 9833 c0 -5 5 -15 10 -23 8 -12 10 -11 10 8 0 12 -4 22 -10 22
-5 0 -10 -3 -10 -7z"/>
<path d="M4080 9705 c0 -9 6 -12 15 -9 8 4 15 7 15 9 0 2 -7 5 -15 9 -9 3 -15
0 -15 -9z"/>
<path d="M4072 9511 c4 -13 18 -16 19 -4 0 4 -5 9 -11 12 -7 2 -11 -2 -8 -8z"/>
<path d="M4015 9500 c4 -6 11 -8 16 -5 14 9 11 15 -7 15 -8 0 -12 -5 -9 -10z"/>
<path d="M2228 9488 c7 -7 12 -21 12 -32 0 -10 3 -17 6 -13 10 10 -5 57 -18
57 -9 0 -9 -3 0 -12z"/>
<path d="M1527 9349 c7 -27 23 -34 23 -11 0 11 -6 22 -14 25 -10 4 -12 0 -9
-14z"/>
<path d="M0 9350 c0 -5 5 -10 10 -10 6 0 10 5 10 10 0 6 -4 10 -10 10 -5 0
-10 -4 -10 -10z"/>
<path d="M2230 9310 c-13 -8 -12 -10 3 -10 9 0 17 5 17 10 0 12 -1 12 -20 0z"/>
<path d="M3288 8913 c7 -3 16 -2 19 1 4 3 -2 6 -13 5 -11 0 -14 -3 -6 -6z"/>
<path d="M2097 8890 c-3 -11 -1 -20 4 -20 5 0 9 -7 9 -15 0 -8 5 -15 10 -15
11 0 12 15 4 48 -8 27 -20 29 -27 2z"/>
<path d="M2785 8620 c3 -5 8 -10 11 -10 2 0 4 5 4 10 0 6 -5 10 -11 10 -5 0
-7 -4 -4 -10z"/>
<path d="M2860 8590 c0 -5 5 -10 11 -10 5 0 7 5 4 10 -3 6 -8 10 -11 10 -2 0
-4 -4 -4 -10z"/>
<path d="M3155 8570 c3 -5 13 -10 21 -10 8 0 14 5 14 10 0 6 -9 10 -21 10 -11
0 -17 -4 -14 -10z"/>
<path d="M797 8289 c-24 -27 -17 -32 21 -16 25 10 29 16 20 25 -16 16 -21 15
-41 -9z"/>
<path d="M9570 8295 c0 -8 7 -15 15 -15 8 0 15 7 15 15 0 8 -7 15 -15 15 -8 0
-15 -7 -15 -15z"/>
<path d="M2290 8222 c0 -6 9 -12 20 -15 11 -3 20 -3 20 -1 0 2 -9 8 -20 14
-11 6 -20 7 -20 2z"/>
<path d="M6578 7925 c4 -25 13 -31 25 -19 6 7 -14 44 -24 44 -3 0 -4 -11 -1
-25z"/>
<path d="M3245 7850 c-3 -5 1 -10 10 -10 9 0 13 5 10 10 -3 6 -8 10 -10 10 -2
0 -7 -4 -10 -10z"/>
<path d="M3445 7510 c3 -5 10 -10 16 -10 5 0 9 5 9 10 0 6 -7 10 -16 10 -8 0
-12 -4 -9 -10z"/>
<path d="M9574 7478 c-4 -6 -2 -14 5 -16 8 -3 9 -8 1 -17 -7 -9 -6 -16 4 -24
11 -9 14 -4 14 29 1 39 -10 51 -24 28z"/>
<path d="M3258 7267 c14 -16 98 -15 114 1 9 9 -5 12 -56 12 -55 0 -66 -3 -58
-13z"/>
<path d="M3355 6670 c2 -14 5 -30 5 -36 0 -7 7 -15 16 -18 13 -5 14 -3 7 6 -6
7 -15 27 -22 43 -9 23 -10 24 -6 5z"/>
<path d="M2340 1456 c0 -9 5 -16 10 -16 6 0 10 4 10 9 0 6 -4 13 -10 16 -5 3
-10 -1 -10 -9z"/>
<path d="M2456 1321 c-4 -7 -5 -15 -2 -18 9 -9 19 4 14 18 -4 11 -6 11 -12 0z"/>
<path d="M2155 961 c-3 -6 3 -14 12 -20 10 -6 12 -11 6 -11 -7 0 -13 -4 -13
-9 0 -5 10 -7 22 -3 18 4 20 2 16 -16 -4 -14 -2 -22 7 -22 19 0 27 -47 15 -86
-16 -49 -53 -66 -99 -47 -40 17 -61 41 -54 60 3 7 2 21 -2 31 -7 15 -9 13 -15
-8 -4 -15 -13 -24 -22 -22 -12 2 -17 -8 -20 -35 -3 -21 -8 -46 -12 -55 -6 -13
-4 -18 8 -18 10 0 16 -9 16 -25 0 -18 -7 -26 -27 -31 -25 -7 -25 -8 -8 -20 24
-18 13 -29 -13 -15 -39 21 -35 11 9 -26 24 -21 59 -53 77 -71 31 -32 62 -37
62 -12 0 6 4 9 8 6 16 -10 73 35 87 69 9 21 23 35 37 37 24 3 56 51 57 87 1
21 5 23 46 19 25 -2 45 1 45 5 0 5 5 5 10 2 6 -3 10 -15 10 -26 0 -10 6 -19
14 -19 7 0 16 -9 19 -20 3 -11 1 -20 -4 -20 -6 0 -31 -22 -56 -50 -25 -27 -52
-50 -59 -50 -9 0 -14 -11 -14 -30 0 -24 4 -30 23 -31 12 0 33 -2 45 -5 13 -2
37 4 53 13 23 14 32 15 38 5 5 -9 11 -5 19 13 11 23 16 25 51 19 50 -8 81 19
81 70 0 31 -7 40 -62 82 -81 61 -75 56 -138 114 -30 28 -97 76 -148 107 -51
31 -95 60 -98 65 -7 11 -21 10 -29 -1z m275 -211 c0 -5 -2 -10 -4 -10 -3 0 -8
5 -11 10 -3 6 -1 10 4 10 6 0 11 -4 11 -10z m-300 -60 c0 -5 -4 -10 -10 -10
-5 0 -10 5 -10 10 0 6 5 10 10 10 6 0 10 -4 10 -10z m354 -84 c-3 -14 -10 -24
-14 -21 -5 3 -3 16 3 29 15 31 20 27 11 -8z m-69 -36 c3 -5 1 -10 -4 -10 -6 0
-11 5 -11 10 0 6 2 10 4 10 3 0 8 -4 11 -10z"/>
<path d="M2015 920 c-4 -12 -5 -24 -2 -27 3 -2 8 5 12 17 4 12 5 24 2 27 -3 2
-8 -5 -12 -17z"/>
<path d="M2645 601 c-3 -5 2 -16 10 -24 13 -14 13 -16 -3 -20 -11 -3 -7 -5 10
-6 15 0 39 -6 55 -12 25 -9 26 -12 11 -20 -20 -11 -24 -29 -7 -29 13 0 64 -39
64 -48 0 -4 6 -16 13 -27 9 -14 15 -16 18 -7 7 14 44 16 44 2 0 -5 -8 -10 -17
-11 -13 0 -11 -3 6 -10 13 -5 26 -7 29 -5 2 3 14 -1 26 -9 11 -8 27 -15 36
-16 8 0 26 -14 40 -30 14 -17 35 -40 48 -53 12 -13 22 -29 22 -36 0 -6 8 -24
18 -38 30 -43 52 -93 52 -118 0 -13 5 -26 10 -29 6 -3 10 -17 10 -31 l0 -24
120 0 c98 0 120 3 120 15 0 7 -6 18 -13 22 -7 4 -21 25 -31 45 -10 24 -24 38
-35 38 -11 0 -24 13 -32 32 -26 64 -145 174 -263 244 -61 36 -126 78 -145 92
-63 47 -133 92 -145 92 -6 0 -20 7 -30 15 -23 17 -33 19 -41 6z"/>
<path d="M2021 464 c13 -15 33 -37 44 -49 20 -21 21 -54 3 -66 -5 -3 -10 -12
-11 -20 -2 -8 -6 -19 -10 -26 -5 -7 1 -16 13 -23 34 -18 25 -38 -17 -35 -21 1
-30 1 -20 -2 33 -8 57 -41 57 -78 0 -19 -4 -35 -10 -35 -5 0 -10 7 -10 15 0 8
-7 15 -15 15 -16 0 -20 -20 -7 -35 5 -6 14 -30 21 -54 8 -29 16 -40 21 -32 6
11 9 11 16 0 4 -7 3 -14 -4 -17 -7 -2 -12 -8 -12 -13 0 -5 108 -9 258 -9 l257
0 -143 140 c-78 76 -155 148 -170 159 -15 11 -21 21 -14 21 19 0 14 29 -8 42
-20 13 -28 38 -11 38 5 0 11 18 13 39 3 35 1 41 -20 46 -14 3 -27 4 -30 0 -3
-3 2 -5 12 -5 13 0 16 -8 14 -34 l-2 -33 -27 26 c-15 15 -23 30 -19 36 5 6 -7
9 -36 7 -24 -2 -42 -9 -41 -15 3 -17 -36 -21 -48 -4 -6 9 -24 19 -39 23 l-28
7 23 -29z"/>
<path d="M4918 474 c-53 -28 -103 -259 -70 -321 16 -29 25 -110 13 -117 -11
-7 -146 159 -188 232 l-30 54 -20 -44 c-11 -24 -26 -68 -33 -98 -7 -30 -21
-74 -32 -98 -10 -24 -18 -52 -18 -63 0 -18 14 -19 515 -19 424 0 515 2 515 13
0 23 -98 216 -132 261 -84 109 -190 164 -387 201 -100 18 -99 18 -133 -1z"/>
<path d="M6330 437 c-77 -41 -88 -59 -65 -113 31 -76 128 -144 290 -205 71
-27 137 -60 184 -94 l34 -25 284 0 c327 0 298 -11 298 115 0 92 -16 134 -74
191 -50 49 -87 68 -101 52 -35 -41 -83 -132 -101 -191 -21 -66 -33 -79 -56
-56 -13 13 -56 21 -232 45 -63 8 -118 17 -122 20 -4 2 -15 30 -24 62 -36 129
-66 171 -145 199 -46 17 -138 16 -170 0z"/>
<path d="M3265 350 c-3 -5 -1 -10 4 -10 6 0 11 5 11 10 0 6 -2 10 -4 10 -3 0
-8 -4 -11 -10z"/>
</g>
</svg>
